<svg xmlns="http://www.w3.org/2000/svg" viewBox="0 0 1000 1000"><polygon points="353.28 482.55 353.79 522.54 353.83 525.42 496.18 596.13 506.47 601.24 659.15 524.68 659.66 524.42 351.83 370.79 353.28 482.55" style="fill:none"/><path d="M815.44,260q-6.23-6.39-12.73-12.52L661.84,317.77l-2.13-1.13L353.2,163.32a423.1,423.1,0,0,0-.39,783.47l.09-35.39.06-61.7.35-114.81V732l3.72,1.79,52.2,25.94L506.46,808l2.33,1.3v104.2l4,2.09L612,966.26A423,423,0,0,0,815.44,260ZM659.66,524.42l-.51.26L506.47,601.24l-10.29-5.11L353.83,525.42l0-2.88-.51-40-1.44-111.76"/></svg>