<svg xmlns="http://www.w3.org/2000/svg" viewBox="0 0 1000 1000"><path d="M662.89,992.4c-.84-.54-1.64-1.14-2.52-1.59q-73.64-37.66-147.29-75.31l-4-2.09V809.21c-.77-.44-1.53-.9-2.33-1.3l-97.23-48.28-52.2-25.94c-1.12-.55-2.25-1.08-3.72-1.79v2.93q-.18,57.4-.35,114.81c0,20.57,0,41.13-.06,61.7q0,18.25-.09,36.52,0,22.26,0,44.54H352a21.33,21.33,0,0,0-2.41-1.64Q279,955.14,208.38,919.56l-9.72-4.94V912.1l-.06-16.88q-.09-37.92-.19-75.84-.06-20.91-.11-41.8,0-37.65-.07-75.29c0-14.58-.12-29.16,0-43.74a4.73,4.73,0,0,0-3.08-5q-74.65-37-149.26-74.15c-1.68-.83-2.47-1.73-2.44-3.74.08-6.92-.07-13.84-.12-20.75Q43.07,522,42.83,489q-.31-42.21-.64-84.41c-.06-8.12-.18-16.24-.3-24.35a20.22,20.22,0,0,0-.32-2.43v-7.19a11.52,11.52,0,0,1,2.8.6Q64.86,381.58,85.3,392l110.2,55.87c.63.31,1.29.56,2.27,1,.09-1.43.21-2.59.22-3.76q.06-70.17.11-140.34,0-66.72.05-133.43,0-35,0-70c0-5.26,0-10.51-.05-15.77h.56c.86.51,1.69,1.08,2.58,1.53q25.58,12.81,51.17,25.6L660,316.58c1,.49,1.94,1,2.75,1.47V526.27L353,371.7c0,1.4,0,2.3,0,3.19q.23,34.46.44,68.91.19,39,.26,78.05a4,4,0,0,0,2.56,4.22c17.59,8.69,35.13,17.5,52.67,26.28Q457.63,576.7,506.33,601c1.8.89,2.58,1.88,2.54,4-.12,5.72,0,11.44.05,17.16q0,29.05.07,58.12.06,49.13.13,98.26,0,15.27,0,30.55l82.42-41.17,69.39-34.69c.81-.41,1.68-.69,2.51-1q0,128.87,0,257.72C663.41,990.72,664.05,991.78,662.89,992.4Z" style="fill:#fff"/><polygon points="661.04 317.7 815.65 240.54 352.69 8.29 198.88 85.3 198.97 86.19 661.04 317.7" style="fill:#1c1c1b"/><polygon points="353.23 523.45 506.6 446.64 661.03 523.99 507.5 600.46 353.23 523.45" style="fill:#1c1c1b"/><polygon points="197.95 445.89 197.95 291.55 43.19 368.85 197.82 447.83 198.05 446.7 197.95 445.89" style="fill:#1c1c1b"/><polygon points="815.67 292.44 815.67 445.89 815.33 445.89 815.75 446.1 969.92 370.18 815.67 292.44" style="fill:#1c1c1b"/></svg>