<svg xmlns="http://www.w3.org/2000/svg" viewBox="0 0 1000 1000"><path d="M-183.65-121V1134H1088.23V-121ZM663,991.37c-.83-.53-1.64-1.14-2.52-1.59L513.23,914.47l-4.05-2.09V808.18c-.77-.44-1.53-.9-2.32-1.3L409.62,758.6l-52.2-25.93c-1.12-.56-2.25-1.09-3.72-1.8v2.93q-.18,57.41-.34,114.81c-.06,20.57,0,41.13-.07,61.7,0,12.17-.07,24.35-.08,36.52q0,22.26,0,44.54h-1.11a21.33,21.33,0,0,0-2.41-1.64q-70.57-35.62-141.16-71.2l-9.72-4.93v-2.53q0-8.43-.05-16.88-.1-37.92-.2-75.84-.06-20.9-.11-41.8,0-37.65-.06-75.29c0-14.58-.13-29.16,0-43.74a4.74,4.74,0,0,0-3.08-5q-74.66-37-149.26-74.15c-1.68-.83-2.47-1.73-2.44-3.74.08-6.91-.07-13.83-.12-20.75Q43.22,520.94,43,488q-.31-42.21-.63-84.41c-.07-8.12-.19-16.23-.31-24.35a20.22,20.22,0,0,0-.32-2.43v-7.19a11,11,0,0,1,2.8.61Q65,380.56,85.44,391l110.2,55.87c.63.32,1.29.57,2.28,1,.08-1.44.21-2.6.21-3.77q.06-70.17.11-140.34,0-66.72,0-133.43,0-35,0-70c0-5.26,0-10.51,0-15.77h.55c.86.51,1.69,1.09,2.59,1.53l51.16,25.6L660.16,315.55c1,.49,1.93,1,2.74,1.47V525.24L353.15,370.67v3.19q.23,34.45.44,68.91.2,39,.26,78.05a4,4,0,0,0,2.56,4.22c17.6,8.69,35.13,17.5,52.68,26.28q48.68,24.34,97.39,48.68c1.79.89,2.57,1.88,2.53,4-.11,5.72,0,11.44.05,17.16q.06,29.05.07,58.12.06,49.14.13,98.26,0,15.27,0,30.55l82.42-41.16q34.71-17.34,69.39-34.7c.81-.4,1.68-.69,2.52-1q0,128.85,0,257.72C663.55,989.69,664.19,990.75,663,991.37Z" style="fill:#fff"/><polygon points="661.04 317.7 815.65 240.54 352.69 8.29 198.88 85.3 198.97 86.19 661.04 317.7" style="fill:#1c1c1b"/><polygon points="353.23 523.45 506.6 446.64 661.03 523.99 507.5 600.46 353.23 523.45" style="fill:#1c1c1b"/><polygon points="197.95 445.89 197.95 291.55 43.19 368.85 197.82 447.83 198.05 446.7 197.95 445.89" style="fill:#1c1c1b"/><polygon points="815.67 292.44 815.67 445.89 815.33 445.89 815.75 446.1 969.92 370.18 815.67 292.44" style="fill:#1c1c1b"/></svg>