<svg xmlns="http://www.w3.org/2000/svg" viewBox="0 0 1000 1000">
	<path d="M967.37,370.79l-151.64,76V241.1l-152,75.83c-.79-.43-1.71-.95-2.66-1.42L253.49,111.59Q227.9,98.8,202.32,86c-.89-.45-1.72-1-2.58-1.53h-.56c0,5.25,0,10.51,0,15.77q0,35,0,70,0,66.72-.05,133.43,0,70.17-.11,140.34c0,1.16-.13,2.33-.22,3.76-1-.43-1.64-.68-2.27-1q-55.11-27.92-110.2-55.86-20.46-10.38-40.93-20.74a12,12,0,0,0-2.8-.61v7.2a20.22,20.22,0,0,1,.32,2.43c.12,8.11.24,16.23.3,24.35q.35,42.19.64,84.41.24,32.92.49,65.87c0,6.91.2,13.83.12,20.75,0,2,.76,2.91,2.44,3.74q74.64,37.06,149.26,74.15a4.73,4.73,0,0,1,3.08,5c-.11,14.58,0,29.16,0,43.74q0,37.63.07,75.29,0,20.9.11,41.8.09,37.92.19,75.84L199.7,911v2.52l9.72,4.94q70.58,35.6,141.16,71.2a20.08,20.08,0,0,1,2.41,1.64h1.11q0-22.27,0-44.54,0-18.27.09-36.52,0-30.85.06-61.7.15-57.41.35-114.81v-2.93c1.47.71,2.6,1.24,3.72,1.79l52.2,25.94,97.23,48.28c.25.12.48.26.72.39v1.52l1.43-.72.19.1V912.34l4,2.08,147.29,75.32.69.39v3.18l153.63-70.69V653.45L968.37,576.3ZM508.8,600.58l-153-75.82-1.33-154.3L661.77,524.09Z" style="fill:#fff"/></svg>