<svg xmlns="http://www.w3.org/2000/svg" viewBox="0 0 579 155"><path d="M21.91,50.07v4.55H51.08V68H21.91V79.23H6.12V36.7h45V50.07Z" style="fill:#fff"/><path d="M75.94,79.05H60.15V36.52H75.94Z" style="fill:#fff"/><path d="M110,35.92c17,0,25.87,5.95,26.54,19.37H120.34c-.61-4-3.71-6-10.39-6-9.36,0-10.94,3.95-10.94,8.44s1.64,8.57,10.94,8.57c6.68,0,9.78-2.07,10.39-6.14h16.15c-.67,13.49-9.47,19.5-26.54,19.5-18.71,0-26.73-7.1-26.73-21.93S91.24,35.92,110,35.92Z" style="fill:#fff"/><path d="M195.4,49.89H177.18V79.05h-15.8V49.89H143.16V36.52H195.4Z" style="fill:#fff"/><path d="M219.07,79.05H203.28V36.52h15.79Z" style="fill:#fff"/><path d="M226.35,57.72c0-14.76,8-21.8,26.73-21.8s26.73,7.1,26.73,21.8-8.08,21.93-26.73,21.93S226.35,72.55,226.35,57.72Zm37.66,0c0-4.43-1.58-8.44-10.93-8.44s-10.94,3.95-10.94,8.44,1.64,8.57,10.94,8.57S264,62.22,264,57.72Z" style="fill:#fff"/><path d="M342.48,36.52l.18,15.41L314.11,69.8,303.48,54v25l-5.81.11h-10V36.52h20.65l18.35,25.09V36.52Z" style="fill:#fff"/><path d="M377.23,76.08H359v29.16H343.21V76.08H324l21.49-13.36h31.74Z" style="fill:#fff"/><path d="M427.26,93l7.53,12.21H416.08l-5.89-10H400.9v10H385.1V62.72h33.41c9.66,0,16.28,6.8,16.28,16.28C434.79,85.2,431.94,90.3,427.26,93ZM400.9,81.92h14.57c1.59,0,3.53,0,3.53-2.92s-1.94-2.92-3.53-2.92H400.9Z" style="fill:#fff"/><path d="M458.46,105.24H442.67V62.72h15.79Z" style="fill:#fff"/><path d="M519.69,92.67c0,7-4.2,12.57-13.85,12.57H467V62.72H504c9.65,0,12.63,4.37,12.63,10.81a12.66,12.66,0,0,1-3.34,8C517,84.16,519.69,88.05,519.69,92.67Zm-36.94-15h14.58c1.58,0,3.53,0,3.53-2.31s-1.95-2.3-3.53-2.3H482.75Zm21.14,13.79c0-2.24-1.94-2.24-3.52-2.24H482.75V93.7h17.62C502,93.7,503.89,93.7,503.89,91.45Z" style="fill:#fff"/><path d="M543.36,74.87v3.95h29.16V89.14H543.36v4h29.16v12.15H527.57V62.72h44.95V74.87Z" style="fill:#fff"/></svg>