<svg xmlns="http://www.w3.org/2000/svg" viewBox="0 0 1000 1000"><g style="isolation:isolate"><path d="M505.82,520.91l-120.1-69,120.1-69.34,120.05,69.28-120,69.06" style="fill:#b4b4b4"/></g><polygon points="625.87 660.16 625.87 589.72 505.82 659.98 505.82 728.74 625.87 797.95 625.87 728.98 625.87 660.16" style="fill:#fff"/><polygon points="625.87 175.43 505.82 106.18 385.72 37 265.65 106.35 385.72 175.55 505.82 244.8 625.87 314.06 745.89 244.74 625.87 175.43" style="fill:#b4b4b4"/><polygon points="745.89 382.61 865.91 314.11 745.89 244.8 745.89 244.8 745.89 382.61 745.89 382.61" style="fill:#b4b4b4"/><polygon points="625.87 314.06 625.87 314.06 625.9 314.04 625.87 314.06" style="fill:#4e4f4f"/><polygon points="265.65 244.09 145.76 313.46 225.69 359.59 265.65 382.66 265.65 244.09" style="fill:#b4b4b4"/><polygon points="505.82 244.8 385.72 175.55 265.65 106.35 265.65 244.09 265.65 382.66 225.69 359.59 145.76 313.46 145.76 452.67 265.65 521.93 265.65 591.3 265.65 658.28 265.65 659.77 265.65 729.11 385.72 798.33 385.72 728.98 385.72 660.53 385.72 591.19 505.82 659.98 505.82 658.5 505.82 591.27 505.82 520.91 385.72 451.91 385.72 313.32 505.82 382.57 625.87 451.85 625.87 314.06 505.82 244.8" style="fill:#f3f3f3"/><path d="M165.88,884.18V890H203v17H165.88v14.31h-20.1V867.16H203v17Z" style="fill:#fff"/><path d="M234.64,921.06h-20.1V866.94h20.1Z" style="fill:#fff"/><path d="M277.93,866.16c21.65,0,32.94,7.58,33.79,24.67H291.15c-.77-5.11-4.71-7.66-13.22-7.66-11.9,0-13.92,5-13.92,10.75s2.09,10.9,13.92,10.9c8.51,0,12.45-2.63,13.22-7.81h20.57c-.85,17.17-12.06,24.82-33.79,24.82-23.81,0-34-9.05-34-27.91S254.12,866.16,277.93,866.16Z" style="fill:#fff"/><path d="M386.7,884H363.5v37.11H343.4V884H320.2v-17h66.5Z" style="fill:#fff"/><path d="M416.82,921.06H396.73V866.94h20.09Z" style="fill:#fff"/><path d="M426.09,893.92c0-18.79,10.21-27.76,34-27.76s34,9.05,34,27.76-10.28,27.91-34,27.91S426.09,912.78,426.09,893.92Zm47.94,0c0-5.64-2-10.75-13.92-10.75s-13.92,5-13.92,10.75,2.09,10.9,13.92,10.9S474,899.64,474,893.92Z" style="fill:#fff"/><path d="M573.9,866.94l.22,19.61L537.79,909.3l-13.53-20.17v31.79l-7.4.14h-12.7V866.94h26.28l23.36,31.93V866.94Z" style="fill:#fff"/><path d="M618.13,917.29h-23.2V954.4h-20.1V917.29H550.38l27.35-17h40.4Z" style="fill:#fff"/><path d="M681.81,938.86l9.59,15.54H667.58l-7.5-12.68H648.26V954.4H628.15V900.28h42.52c12.3,0,20.73,8.66,20.73,20.72C691.4,928.89,687.76,935.38,681.81,938.86Zm-33.55-14.15h18.55c2,0,4.48,0,4.48-3.71s-2.47-3.71-4.48-3.71H648.26Z" style="fill:#fff"/><path d="M721.52,954.4H701.43V900.28h20.09Z" style="fill:#fff"/><path d="M799.45,938.4c0,8.89-5.34,16-17.63,16H732.34V900.28H779.5c12.3,0,16.09,5.57,16.09,13.76,0,3.48-1.63,7-4.26,10.13C796.05,927.57,799.45,932.52,799.45,938.4Zm-47-19.1H771c2,0,4.48,0,4.48-2.94s-2.47-2.94-4.48-2.94H752.44Zm26.91,17.55c0-2.86-2.48-2.86-4.49-2.86H752.44v5.72h22.42C776.87,939.71,779.35,939.71,779.35,936.85Z" style="fill:#fff"/><path d="M829.58,915.74v5H866.7v13.14H829.58v5H866.7V954.4H809.48V900.28H866.7v15.46Z" style="fill:#fff"/></svg>