<svg xmlns="http://www.w3.org/2000/svg" viewBox="0 0 350 350"><g style="isolation:isolate"><g style="isolation:isolate"><path d="M176.67,180.45l-43.1-24.76,43.1-24.88,43.08,24.86-43.08,24.78" style="fill:#aa1351"/></g><polygon points="219.75 230.42 219.75 205.14 176.67 230.36 176.67 255.03 219.75 279.87 219.75 255.12 219.75 230.42" style="fill:#ff7bac;mix-blend-mode:multiply"/><polygon points="219.75 56.47 176.67 31.62 133.57 6.79 90.48 31.68 133.57 56.51 176.67 81.36 219.75 106.22 262.82 81.34 219.75 56.47" style="fill:#aa1351"/><polygon points="262.82 130.82 305.89 106.24 262.82 81.36 262.82 81.36 262.82 130.82 262.82 130.82" style="fill:#aa1351"/><polygon points="219.75 106.22 219.75 106.22 219.76 106.21 219.75 106.22" style="fill:#4d4e4e"/><polygon points="90.48 81.11 47.46 106 76.14 122.56 90.48 130.84 90.48 81.11" style="fill:#aa1351"/><polygon points="176.67 81.36 133.57 56.51 90.48 31.68 90.48 81.11 90.48 130.84 76.14 122.56 47.46 106 47.46 155.96 90.48 180.81 90.48 205.71 90.48 229.75 90.48 230.28 90.48 255.17 133.57 280 133.57 255.12 133.57 230.56 133.57 205.67 176.67 230.36 176.67 229.83 176.67 205.7 176.67 180.45 133.57 155.69 133.57 105.95 176.67 130.81 219.75 155.67 219.75 106.22 176.67 81.36" style="fill:#ff7bac;mix-blend-mode:multiply"/><g style="mix-blend-mode:multiply"><path d="M54.68,310.81v2.08H68V319H54.68v5.13H47.46V304.71H68v6.1Z" style="fill:#ff7bac"/><path d="M79.35,324.05H72.14V304.63h7.21Z" style="fill:#ff7bac"/><path d="M94.89,304.35c7.77,0,11.82,2.72,12.12,8.85H99.63c-.27-1.83-1.69-2.75-4.74-2.75-4.27,0-5,1.81-5,3.86s.75,3.91,5,3.91c3,0,4.47-.94,4.74-2.8H107c-.3,6.16-4.32,8.91-12.12,8.91-8.55,0-12.21-3.25-12.21-10S86.34,304.35,94.89,304.35Z" style="fill:#ff7bac"/><path d="M133.92,310.73H125.6v13.32h-7.22V310.73h-8.32v-6.1h23.86Z" style="fill:#ff7bac"/><path d="M144.73,324.05h-7.21V304.63h7.21Z" style="fill:#ff7bac"/><path d="M148.06,314.31c0-6.74,3.66-10,12.21-10s12.2,3.24,12.2,10-3.69,10-12.2,10S148.06,321.08,148.06,314.31Zm17.2,0c0-2-.72-3.86-5-3.86s-5,1.81-5,3.86.75,3.91,5,3.91S165.26,316.36,165.26,314.31Z" style="fill:#ff7bac"/><path d="M201.1,304.63l.08,7-13,8.17-4.85-7.24V324l-2.66.05h-4.56V304.63h9.44l8.38,11.46V304.63Z" style="fill:#ff7bac"/><path d="M217,322.7h-8.32V336h-7.22V322.7h-8.77l9.82-6.11H217Z" style="fill:#ff7bac"/><path d="M239.83,330.44l3.44,5.57h-8.55L232,331.46h-4.25V336h-7.21V316.59h15.26a7.13,7.13,0,0,1,7.44,7.44A7.21,7.21,0,0,1,239.83,330.44Zm-12.05-5.08h6.66c.72,0,1.61,0,1.61-1.33s-.89-1.33-1.61-1.33h-6.66Z" style="fill:#ff7bac"/><path d="M254.08,336h-7.22V316.59h7.22Z" style="fill:#ff7bac"/><path d="M282,330.27c0,3.19-1.91,5.74-6.32,5.74H258V316.59h16.92c4.42,0,5.78,2,5.78,4.94a5.81,5.81,0,0,1-1.53,3.64A6.38,6.38,0,0,1,282,330.27Zm-16.87-6.85h6.66c.72,0,1.61,0,1.61-1.06s-.89-1.05-1.61-1.05h-6.66Zm9.66,6.3c0-1-.89-1-1.61-1h-8.05v2.05h8.05C273.94,330.74,274.83,330.74,274.83,329.72Z" style="fill:#ff7bac"/><path d="M292.86,322.14v1.8h13.31v4.72H292.86v1.8h13.31V336H285.64V316.59h20.53v5.55Z" style="fill:#ff7bac"/></g></g></svg>