<svg xmlns="http://www.w3.org/2000/svg" viewBox="0 0 350 350"><polygon points="221.85 229.16 221.85 203.62 178.33 229.09 178.33 254.02 221.85 279.12 221.85 254.11 221.85 229.16" style="fill:#f15a24"/><polygon points="269.26 85.31 269.26 121.83 301.06 103.68 269.26 85.31" style="fill:#f15a24"/><path d="M265.37,78.57v50l43.51-24.83Zm3.89,6.74,31.8,18.37-31.8,18.15Z" style="fill:#f15a24"/><polygon points="221.85 103.68 221.85 103.68 221.87 103.67 221.85 103.68" style="fill:#f15a24"/><path d="M55.08,310.38v2.1H68.54v6.17H55.08v5.18H47.79V304.21H68.54v6.17Z" style="fill:#f15a24"/><path d="M80,323.75H72.72V304.13H80Z" style="fill:#f15a24"/><path d="M95.71,303.85c7.84,0,11.94,2.74,12.25,8.94H100.5c-.28-1.85-1.71-2.78-4.79-2.78-4.32,0-5,1.82-5,3.9s.76,3.95,5,3.95c3.08,0,4.51-.95,4.79-2.83H108c-.31,6.22-4.38,9-12.25,9-8.64,0-12.34-3.28-12.34-10.12S87.07,303.85,95.71,303.85Z" style="fill:#f15a24"/><path d="M135.14,310.29h-8.41v13.46h-7.29V310.29H111v-6.16h24.11Z" style="fill:#f15a24"/><path d="M146.06,323.75h-7.28V304.13h7.28Z" style="fill:#f15a24"/><path d="M149.42,313.91c0-6.81,3.7-10.06,12.34-10.06s12.33,3.28,12.33,10.06S170.36,324,161.76,324,149.42,320.75,149.42,313.91Zm17.38,0c0-2.05-.73-3.9-5-3.9s-5,1.82-5,3.9.76,3.95,5,3.95S166.8,316,166.8,313.91Z" style="fill:#f15a24"/><path d="M203,304.13l.08,7.11-13.17,8.24L185,312.17V323.7l-2.68.05h-4.6V304.13h9.53l8.46,11.57V304.13Z" style="fill:#f15a24"/><path d="M219,322.38h-8.41v13.46h-7.28V322.38h-8.87l9.92-6.17H219Z" style="fill:#f15a24"/><path d="M242.13,330.2l3.48,5.64H237l-2.72-4.6H230v4.6h-7.29V316.21H238.1a7.6,7.6,0,0,1,4,14ZM230,325.07h6.72c.73,0,1.63,0,1.63-1.34s-.9-1.35-1.63-1.35H230Z" style="fill:#f15a24"/><path d="M256.53,335.84h-7.28V316.21h7.28Z" style="fill:#f15a24"/><path d="M284.78,330c0,3.23-1.93,5.81-6.39,5.81H260.45V316.21h17.1c4.46,0,5.83,2,5.83,5a5.84,5.84,0,0,1-1.54,3.68A6.43,6.43,0,0,1,284.78,330Zm-17-6.92h6.73c.73,0,1.63,0,1.63-1.06s-.9-1.07-1.63-1.07h-6.73Zm9.76,6.36c0-1-.9-1-1.63-1h-8.13v2.07h8.13C276.6,330.51,277.5,330.51,277.5,329.47Z" style="fill:#f15a24"/><path d="M295.71,321.82v1.82h13.45v4.77H295.71v1.82h13.45v5.61H288.42V316.21h20.74v5.61Z" style="fill:#f15a24"/><path d="M221.85,103.68,178.33,78.57,134.78,53.46,95.16,30.63l3.91-2.24,0,0L134.79,7.72l41.59,24,43.53,25.11,37.67,21.76L221.85,99.18l-.07,0-3.9,2.25,4,2.29,43.52-25.14L221.85,53.42,178.33,28.31,134.78,3.23,91.25,28.37V79.93L47.79,103.46h0v50.47L91.25,179v75.12l43.53,25.09v-75.1l43.55,24.94V180.92l43.55-25.37v-3.83h0ZM91.25,128.55l-12.15-7L51.54,105.63,91.25,84.11Zm43.53-25.14,41.6,24-41.6,24Zm82.65,50.22-41.05,23.92-39.64-22.77,41.58-24,2-1.11,39.28,22.67Z" style="fill:#f15a24"/></svg>