<svg xmlns="http://www.w3.org/2000/svg" xmlns:xlink="http://www.w3.org/1999/xlink" viewBox="0 0 350 350"><defs><linearGradient id="a" x1="197.64" y1="280.53" x2="197.64" y2="205.41" gradientUnits="userSpaceOnUse"><stop offset="0" stop-color="#0071bc"/><stop offset="0.21" stop-color="#0373b9"/><stop offset="0.38" stop-color="#0d79b0"/><stop offset="0.53" stop-color="#1d83a2"/><stop offset="0.67" stop-color="#35918d"/><stop offset="0.81" stop-color="#53a372"/><stop offset="0.94" stop-color="#77b951"/><stop offset="1" stop-color="#8cc63f"/></linearGradient><linearGradient id="b" x1="132.7" y1="31.03" x2="132.7" y2="280.66" gradientUnits="userSpaceOnUse"><stop offset="0" stop-color="#8cc63f"/><stop offset="0.04" stop-color="#85c245"/><stop offset="0.36" stop-color="#4c9f78"/><stop offset="0.65" stop-color="#23869d"/><stop offset="0.87" stop-color="#0977b4"/><stop offset="1" stop-color="#0071bc"/></linearGradient></defs><path d="M176,180.59,132.66,155.7l43.33-25,43.31,25L176,180.59" style="fill:#39b54a"/><polygon points="219.29 230.82 219.29 205.41 175.99 230.76 175.99 255.56 219.29 280.53 219.29 255.65 219.29 230.82" style="fill:url(#a)"/><polygon points="219.29 55.96 175.99 30.98 132.66 6.02 89.34 31.03 132.66 56 175.99 80.98 219.29 105.97 262.59 80.96 219.29 55.96" style="fill:#39b54a"/><polygon points="262.59 130.7 305.89 105.98 262.59 80.98 262.59 80.98 262.59 130.7 262.59 130.7" style="fill:#39b54a"/><polygon points="219.29 105.97 219.29 105.97 219.31 105.96 219.29 105.97" style="fill:#4d4e4e"/><polygon points="89.34 80.73 46.1 105.75 74.93 122.39 89.34 130.71 89.34 80.73" style="fill:#39b54a"/><polygon points="175.99 80.98 132.66 56 89.34 31.03 89.34 80.73 89.34 130.71 74.93 122.39 46.1 105.75 46.1 155.97 89.34 180.95 89.34 205.98 89.34 230.14 89.34 230.68 89.34 255.7 132.66 280.67 132.66 255.65 132.66 230.96 132.66 205.94 175.99 230.76 175.99 230.22 175.99 205.97 175.99 180.59 132.66 155.7 132.66 105.7 175.99 130.68 219.29 155.67 219.29 105.97 175.99 80.98" style="fill:url(#b)"/><path d="M53.35,311.63v2.1h13.4v6.13H53.35V325H46.1V305.5H66.74v6.13Z" style="fill:#0071bc"/><path d="M78.16,324.94H70.91V305.41h7.25Z" style="fill:#0071bc"/><path d="M93.78,305.14c7.81,0,11.88,2.73,12.19,8.89H98.55c-.28-1.84-1.71-2.76-4.77-2.76-4.3,0-5,1.82-5,3.88s.75,3.93,5,3.93c3.06,0,4.49-.95,4.77-2.81H106c-.31,6.19-4.36,9-12.19,9-8.59,0-12.28-3.27-12.28-10.07S85.19,305.14,93.78,305.14Z" style="fill:#0071bc"/><path d="M133,311.55h-8.36v13.39h-7.26V311.55H109v-6.14h24Z" style="fill:#0071bc"/><path d="M143.88,324.94h-7.25V305.41h7.25Z" style="fill:#0071bc"/><path d="M147.22,315.15c0-6.78,3.69-10,12.28-10s12.27,3.26,12.27,10-3.71,10.07-12.27,10.07S147.22,322,147.22,315.15Zm17.3,0c0-2-.73-3.88-5-3.88s-5,1.82-5,3.88.75,3.93,5,3.93S164.52,317.21,164.52,315.15Z" style="fill:#0071bc"/><path d="M200.55,305.41l.08,7.08-13.11,8.21-4.88-7.28v11.47l-2.67.05h-4.58V305.41h9.48l8.42,11.52V305.41Z" style="fill:#0071bc"/><path d="M216.5,323.58h-8.37V337h-7.25V323.58h-8.82l9.87-6.14H216.5Z" style="fill:#0071bc"/><path d="M239.47,331.36l3.46,5.61h-8.59l-2.7-4.58h-4.27V337h-7.25V317.44h15.34a7.57,7.57,0,0,1,4,13.92Zm-12.1-5.1h6.69c.73,0,1.62,0,1.62-1.34s-.89-1.34-1.62-1.34h-6.69Z" style="fill:#0071bc"/><path d="M253.8,337h-7.25V317.44h7.25Z" style="fill:#0071bc"/><path d="M281.91,331.19c0,3.21-1.92,5.78-6.36,5.78H257.7V317.44h17c4.43,0,5.8,2,5.8,5a5.83,5.83,0,0,1-1.53,3.65A6.42,6.42,0,0,1,281.91,331.19Zm-17-6.88h6.7c.72,0,1.62,0,1.62-1.07s-.9-1.05-1.62-1.05H265Zm9.71,6.33c0-1-.89-1-1.62-1H265v2.07H273C273.77,331.67,274.66,331.67,274.66,330.64Z" style="fill:#0071bc"/><path d="M292.78,323v1.81h13.39v4.75H292.78v1.81h13.39V337H285.53V317.44h20.64V323Z" style="fill:#0071bc"/></svg>