<svg xmlns="http://www.w3.org/2000/svg" viewBox="0 0 350 350"><path d="M174.51,181.22l-43.6-25L174.51,131l43.57,25.15-43.57,25.07" style="fill:#999"/><polygon points="218.09 231.77 218.09 206.2 174.51 231.71 174.51 256.67 218.09 281.79 218.09 256.75 218.09 231.77" style="fill:#fff"/><polygon points="218.09 55.81 174.51 30.67 130.91 5.56 87.32 30.73 130.91 55.85 174.51 80.99 218.09 106.13 261.65 80.97 218.09 55.81" style="fill:#999"/><polygon points="261.65 131.02 305.22 106.15 261.65 80.99 261.65 80.99 261.65 131.02 261.65 131.02" style="fill:#999"/><polygon points="218.09 106.13 218.09 106.13 218.1 106.13 218.09 106.13" style="fill:#4d4e4e"/><polygon points="87.32 80.73 43.8 105.92 72.81 122.66 87.32 131.04 87.32 80.73" style="fill:#999"/><polygon points="174.51 80.99 130.91 55.85 87.32 30.73 87.32 80.73 87.32 131.04 72.81 122.66 43.8 105.92 43.8 156.45 87.32 181.59 87.32 206.78 87.32 231.09 87.32 231.63 87.32 256.8 130.91 281.93 130.91 256.75 130.91 231.91 130.91 206.73 174.51 231.71 174.51 231.17 174.51 206.76 174.51 181.22 130.91 156.18 130.91 105.86 174.51 131 218.09 156.15 218.09 106.13 174.51 80.99" style="fill:#fff"/><path d="M51.1,313.09v2.11H64.58v6.17H51.1v5.19H43.8V306.92H64.57v6.17Z" style="fill:#f2f2f2"/><path d="M76.06,326.48H68.77V306.83h7.29Z" style="fill:#f2f2f2"/><path d="M91.78,306.55c7.86,0,12,2.75,12.26,9H96.58c-.28-1.86-1.71-2.78-4.8-2.78-4.32,0-5,1.82-5,3.9s.75,4,5,4c3.09,0,4.52-1,4.8-2.84H104c-.31,6.23-4.37,9-12.26,9-8.65,0-12.35-3.28-12.35-10.13S83.13,306.55,91.78,306.55Z" style="fill:#f2f2f2"/><path d="M131.26,313h-8.42v13.47h-7.3V313h-8.42v-6.18h24.14Z" style="fill:#f2f2f2"/><path d="M142.2,326.48h-7.3V306.83h7.3Z" style="fill:#f2f2f2"/><path d="M145.56,316.63c0-6.82,3.71-10.08,12.35-10.08s12.35,3.29,12.35,10.08-3.73,10.13-12.35,10.13S145.56,323.48,145.56,316.63Zm17.4,0c0-2.05-.73-3.9-5.05-3.9s-5,1.82-5,3.9.76,4,5,4S163,318.71,163,316.63Z" style="fill:#f2f2f2"/><path d="M199.22,306.83l.08,7.12-13.19,8.26-4.91-7.32v11.54l-2.69.05H173.9V306.83h9.54l8.48,11.6v-11.6Z" style="fill:#f2f2f2"/><path d="M215.27,325.11h-8.42v13.48h-7.29V325.11h-8.88l9.93-6.17h14.66Z" style="fill:#f2f2f2"/><path d="M238.39,332.94l3.48,5.65h-8.64L230.5,334h-4.29v4.61h-7.3V318.94h15.44a7.61,7.61,0,0,1,4,14Zm-12.18-5.13H233c.73,0,1.62,0,1.62-1.35s-.89-1.35-1.62-1.35h-6.74Z" style="fill:#f2f2f2"/><path d="M252.81,338.59h-7.3V318.94h7.3Z" style="fill:#f2f2f2"/><path d="M281.1,332.78c0,3.22-1.94,5.81-6.4,5.81h-18V318.94h17.13c4.46,0,5.83,2,5.83,5a5.84,5.84,0,0,1-1.54,3.68A6.48,6.48,0,0,1,281.1,332.78ZM264,325.84h6.74c.73,0,1.63,0,1.63-1.06s-.9-1.07-1.63-1.07H264Zm9.77,6.37c0-1-.9-1-1.63-1H264v2.07h8.14C272.9,333.25,273.8,333.25,273.8,332.21Z" style="fill:#f2f2f2"/><path d="M292,324.55v1.83h13.48v4.77H292V333h13.48v5.62H284.74V318.94h20.77v5.61Z" style="fill:#f2f2f2"/></svg>