<svg xmlns="http://www.w3.org/2000/svg" width="95px" height="95px" viewBox="0 0 1969.71 1969.71">
  <defs>
    <style>
      .cls-1 {
        isolation: isolate;
      }

      .cls-2 {
        fill: gray;
      }

      .cls-3 {
        fill: #1c1c1c;
      }

      .cls-4 {
        fill: #4d4e4e;
      }
    </style>
  </defs>
  <g id="guides">
    <g class="cls-1">
      <path class="cls-2" d="M1011,1051.86,787.29,923.35,1011,794.19l223.62,129L1011,1051.86" />
    </g>
    <polygon class="cls-3"
      points="1234.63 1311.24 1234.63 1180.04 1011.01 1310.92 1011.01 1438.99 1234.63 1567.91 1234.63 1439.44 1234.63 1311.24" />
    <polygon class="cls-2"
      points="1234.63 408.35 1011.01 279.36 787.29 150.49 563.64 279.67 787.29 408.56 1011.01 537.56 1234.63 666.57 1458.19 537.44 1234.63 408.35" />
    <polygon class="cls-2"
      points="1458.19 794.26 1681.75 666.66 1458.19 537.56 1458.19 537.56 1458.19 794.26 1458.19 794.26" />
    <polygon class="cls-4" points="1234.63 666.57 1234.63 666.57 1234.69 666.53 1234.63 666.57" />
    <polygon class="cls-2" points="563.64 536.24 340.33 665.45 489.2 751.38 563.64 794.35 563.64 536.24" />
    <polygon class="cls-3"
      points="1011.01 537.56 787.29 408.56 563.64 279.67 563.64 536.24 563.64 794.35 489.2 751.38 340.33 665.45 340.33 924.76 563.64 1053.77 563.64 1182.99 563.64 1307.75 563.64 1310.51 563.64 1439.69 787.29 1568.61 787.29 1439.44 787.29 1311.94 787.29 1182.77 1011.01 1310.92 1011.01 1308.16 1011.01 1182.93 1011.01 1051.86 787.29 923.35 787.29 665.18 1011.01 794.19 1234.63 923.23 1234.63 666.57 1011.01 537.56" />
    <path class="cls-3" d="M377.8,1728.52v10.8H447V1771H377.8v26.65H340.35V1696.83H446.93v31.69Z" />
    <path class="cls-3" d="M505.89,1797.22H468.45V1696.41h37.44Z" />
    <path class="cls-3"
      d="M586.52,1695c40.32,0,61.35,14.11,62.94,45.94H611.15c-1.45-9.51-8.79-14.26-24.63-14.26-22.17,0-25.92,9.36-25.92,20s3.89,20.31,25.92,20.31c15.84,0,23.18-4.9,24.63-14.55h38.31c-1.59,32-22.47,46.23-62.94,46.23-44.36,0-63.37-16.85-63.37-52S542.16,1695,586.52,1695Z" />
    <path class="cls-3" d="M789.12,1728.09H745.91v69.13H708.47v-69.13H665.26v-31.68H789.12Z" />
    <path class="cls-3" d="M845.24,1797.22H807.8V1696.41h37.44Z" />
    <path class="cls-3"
      d="M862.49,1746.67c0-35,19-51.7,63.37-51.7s63.37,16.85,63.37,51.7-19.16,52-63.37,52S862.49,1781.81,862.49,1746.67Zm89.3,0c0-10.51-3.75-20-25.93-20s-25.92,9.36-25.92,20,3.89,20.31,25.92,20.31S951.79,1757.33,951.79,1746.67Z" />
    <path class="cls-3"
      d="M1137.81,1696.41l.42,36.52-67.66,42.38-25.21-37.57V1797l-13.79.25h-23.66V1696.41h49l43.5,59.48v-59.48Z" />
    <path class="cls-3" d="M1220.2,1790.2H1177v69.13h-37.44V1790.2H1094l50.94-31.69h75.25Z" />
    <path class="cls-3"
      d="M1338.82,1830.38l17.86,28.95h-44.36l-14-23.62h-22v23.62h-37.45V1758.51h79.21c22.9,0,38.6,16.13,38.6,38.6C1356.68,1811.8,1349.91,1823.9,1338.82,1830.38Zm-62.5-26.35h34.56c3.75,0,8.35,0,8.35-6.92s-4.6-6.91-8.35-6.91h-34.56Z" />
    <path class="cls-3" d="M1412.8,1859.33h-37.44V1758.51h37.44Z" />
    <path class="cls-3"
      d="M1558,1829.52c0,16.56-9.94,29.81-32.84,29.81h-92.17V1758.51h87.86c22.89,0,30,10.38,30,25.64,0,6.48-3,13.11-7.92,18.87C1551.61,1809.35,1558,1818.57,1558,1829.52ZM1470.38,1794H1505c3.75,0,8.35,0,8.35-5.48s-4.6-5.47-8.35-5.47h-34.57Zm50.13,32.69c0-5.33-4.61-5.33-8.36-5.33h-41.77V1832h41.77C1515.9,1832,1520.51,1832,1520.51,1826.64Z" />
    <path class="cls-3" d="M1614.08,1787.32v9.36h69.13v24.48h-69.13v9.37h69.13v28.8H1576.63V1758.51h106.58v28.81Z" />
  </g>
</svg>