<?xml version="1.0" encoding="utf-8"?>
<!-- Generator: Adobe Illustrator 24.1.0, SVG Export Plug-In . SVG Version: 6.00 Build 0)  -->
<svg version="1.1" id="Layer_1" xmlns="http://www.w3.org/2000/svg" xmlns:xlink="http://www.w3.org/1999/xlink" x="0px" y="0px"
	 viewBox="0 0 32 32" style="enable-background:new 0 0 32 32;" xml:space="preserve">
<g id="Google_x2B__3_">
	<path d="M16.2,0.4C7.5,0.4,0.4,7.5,0.4,16.2S7.5,32,16.2,32S32,24.9,32,16.2S24.9,0.4,16.2,0.4z M13.1,21.6c-2.9,0-5.3-2.4-5.3-5.3
		s2.4-5.3,5.3-5.3c1.4,0,2.6,0.5,3.6,1.4c-1.1,1.1-1.1,1.1-1.5,1.6c-0.5-0.5-1.1-0.8-2.1-0.8c-1.8,0-3.1,1.4-3.1,3.2
		c0,1.8,1.4,3.1,3.1,3.1s2.4-1.2,2.9-2.2c-0.8,0-3.2,0-3.2,0v-2h5.4C18.6,17.1,17.5,21.6,13.1,21.6z M24.8,16.1h-2v2h-2v-2h-1v-1h1
		v-1h2v1h2V16.1z"/>
</g>
</svg>
