<?xml version="1.0" encoding="utf-8"?>
<!-- Generator: Adobe Illustrator 24.1.0, SVG Export Plug-In . SVG Version: 6.00 Build 0)  -->
<svg version="1.1" id="Layer_1" xmlns="http://www.w3.org/2000/svg" xmlns:xlink="http://www.w3.org/1999/xlink" x="0px" y="0px"
	 viewBox="0 0 32 32" style="enable-background:new 0 0 32 32;" xml:space="preserve">
<g id="Instagram_5_">
	<path d="M13.7,15.8c0-1.6,1.3-3,3-3c1.6,0,3,1.3,3,3c0,1.6-1.3,2.9-3,2.9C15,18.8,13.7,17.5,13.7,15.8z"/>
	<path d="M22.8,12.6c0,0.3-0.2,0.5-0.5,0.5h-2c-0.3,0-0.5-0.2-0.5-0.5v-2c0-0.3,0.2-0.5,0.5-0.5h2c0.3,0,0.5,0.2,0.5,0.5V12.6z"/>
	<path d="M20.9,15.1h1.9v6.5c0,0.3-0.2,0.5-0.5,0.5H10.8c-0.3,0,0-0.3,0-0.5v-6.5h1.4c-0.3,0-0.3,0.7-0.3,1.1c0,2.6,2.1,4.5,4.7,4.5
		s4.7-1.8,4.7-4.4C21.3,15.9,21.2,15.1,20.9,15.1z"/>
	<path d="M16.2,0C7.4,0,0.3,7.1,0.3,15.9s7.1,15.9,15.9,15.9s15.9-7.1,15.9-15.9S25,0,16.2,0z M24.8,21.7c0,1-1.4,2.4-2.4,2.4H10.7
		c-1,0-1.9-1.4-1.9-2.4V10c0-1,0.9-1.8,1.9-1.8h11.7c1,0,2.4,0.8,2.4,1.8V21.7z"/>
</g>
</svg>
