 <svg class="logosvg" xmlns="http://www.w3.org/2000/svg" viewBox="0 0 1000 1000" >

            
                    <polygon id="f" points="662.890 992.400, 660.370 990.810, 513.080 915.500, 509.080 913.410, 509.080 809.210, 506.750 807.910, 409.520 759.630, 357.320 733.690, 353.600 731.900, 353.600 734.830, 353.250 849.640, 353.190 911.340, 353.100 947.860, 353.100 992.400, 352.000 992.400, 349.590 990.760, 208.380 919.560, 198.660 914.620, 198.660 912.100, 198.600 895.220, 198.410 819.380, 198.300 777.580, 198.230 702.290, 198.230 658.550, 195.150 653.550, 45.890 579.400, 43.450 575.660, 43.330 554.910, 42.830 489.000, 42.190 404.590, 41.890 380.240, 41.570 377.810, 41.570 370.620, 44.370 371.220, 85.300 392.000, 195.500 447.870, 197.770 448.870, 197.990 445.110, 198.100 304.770, 198.150 171.340, 198.150 101.340, 198.100 85.570, 198.660 85.570, 201.240 87.100, 252.410 112.700, 660.000 316.580, 662.750 318.050, 662.750 526.270, 353.000 371.700, 353.000 374.890, 353.440 443.800, 353.700 521.850, 356.260 526.070, 408.930 552.350, 506.330 601.000, 508.870 605.000, 508.920 622.160, 508.990 680.280, 509.120 778.540, 509.120 809.090, 591.540 767.920, 660.930 733.230, 663.440 732.230, 663.440 989.950, 662.890 992.400" />
               

                <path id="f-n-t" d="M967.37,370.79l-151.64,76V241.1l-152,75.83c-.79-.43-1.71-.95-2.66-1.42L253.49,111.59Q227.9,98.8,202.32,86c-.89-.45-1.72-1-2.58-1.53h-.56c0,5.25,0,10.51,0,15.77q0,35,0,70,0,66.72-.05,133.43,0,70.17-.11,140.34c0,1.16-.13,2.33-.22,3.76-1-.43-1.64-.68-2.27-1q-55.11-27.92-110.2-55.86-20.46-10.38-40.93-20.74a12,12,0,0,0-2.8-.61v7.2a20.22,20.22,0,0,1,.32,2.43c.12,8.11.24,16.23.3,24.35q.35,42.19.64,84.41.24,32.92.49,65.87c0,6.91.2,13.83.12,20.75,0,2,.76,2.91,2.44,3.74q74.64,37.06,149.26,74.15a4.73,4.73,0,0,1,3.08,5c-.11,14.58,0,29.16,0,43.74q0,37.63.07,75.29,0,20.9.11,41.8.09,37.92.19,75.84L199.7,911v2.52l9.72,4.94q70.58,35.6,141.16,71.2a20.08,20.08,0,0,1,2.41,1.64h1.11q0-22.27,0-44.54,0-18.27.09-36.52,0-30.85.06-61.7.15-57.41.35-114.81v-2.93c1.47.71,2.6,1.24,3.72,1.79l52.2,25.94,97.23,48.28c.25.12.48.26.72.39v1.52l1.43-.72.19.1V912.34l4,2.08,147.29,75.32.69.39v3.18l153.63-70.69V653.45L968.37,576.3ZM508.8,600.58l-153-75.82-1.33-154.3L661.77,524.09Z" style="fill:#fff"/>



            
      


              
                    <polygon class="caps"  points="661.04 317.7 815.65 240.54 352.69 8.29 198.88 85.3 198.97 86.19 661.04 317.7" />
                    <polygon class="caps"  points="353.23 523.45 506.6 446.64 661.03 523.99 507.5 600.46 353.23 523.45" />
                    <polygon class="caps"  points="197.95 445.89 197.95 291.55 43.19 368.85 197.82 447.83 198.05 446.7 197.95 445.89" />
                    <polygon class="caps"  points="815.67 292.44 815.67 445.89 815.33 445.89 815.75 446.1 969.92 370.18 815.67 292.44" />
               

                
                <polygon id="t" points="968.37 576.3 967.37 370.79 815.73 446.77 815.73 241.1 661.1 318.23 661.4 524.11 509.46 600.24 508.46 808.75 661.71 731.29 662.1 993.31 815.73 922.62 815.73 653.45 968.37 576.3" style="fill:#e2dd1e"/>
                <polygon id="hover-t" points="968.37 576.3 967.37 370.79 815.73 446.77 815.73 241.1 661.1 318.23 661.4 524.11 509.46 600.24 508.46 808.75 661.71 731.29 662.1 993.31 815.73 922.62 815.73 653.45 968.37 576.3" style="fill:transparent"/>
                <polygon id="hover-f" points="662.890 992.400, 660.370 990.810, 513.080 915.500, 509.080 913.410, 509.080 809.210, 506.750 807.910, 409.520 759.630, 357.320 733.690, 353.600 731.900, 353.600 734.830, 353.250 849.640, 353.190 911.340, 353.100 947.860, 353.100 992.400, 352.000 992.400, 349.590 990.760, 208.380 919.560, 198.660 914.620, 198.660 912.100, 198.600 895.220, 198.410 819.380, 198.300 777.580, 198.230 702.290, 198.230 658.550, 195.150 653.550, 45.890 579.400, 43.450 575.660, 43.330 554.910, 42.830 489.000, 42.190 404.590, 41.890 380.240, 41.570 377.810, 41.570 370.620, 44.370 371.220, 85.300 392.000, 195.500 447.870, 197.770 448.870, 197.990 445.110, 198.100 304.770, 198.150 171.340, 198.150 101.340, 198.100 85.570, 198.660 85.570, 201.240 87.100, 252.410 112.700, 660.000 316.580, 662.750 318.050, 662.750 526.270, 353.000 371.700, 353.000 374.890, 353.440 443.800, 353.700 521.850, 356.260 526.070, 408.930 552.350, 506.330 601.000, 508.870 605.000, 508.920 622.160, 508.990 680.280, 509.120 778.540, 509.120 809.090, 591.540 767.920, 660.930 733.230, 663.440 732.230, 663.440 989.950, 662.890 992.400"  style="fill:transparent" />

         </svg> 