<?xml version="1.0" encoding="utf-8"?>
<!-- Generator: Adobe Illustrator 24.1.0, SVG Export Plug-In . SVG Version: 6.00 Build 0)  -->
<svg version="1.1" id="Layer_1" xmlns="http://www.w3.org/2000/svg" xmlns:xlink="http://www.w3.org/1999/xlink" x="0px" y="0px"
	 viewBox="0 0 1576 420.1" style="enable-background:new 0 0 1576 420.1;" xml:space="preserve">
<style type="text/css">
	.st0{fill:#FFFFFF;}
</style>
<g>
	<path class="st0" d="M83.1,22.3c-0.6-0.1-1.3,0-2.3,0.1c-2,0.3-4.1,1.3-6.4,3.1L73,23.4l-0.9,0.1c-0.6,0.1-1.4,0.2-2.4,0.3
		c-1,0.1-1.7,0.2-1.9,0.2c-1.4,0.2-2.7,1.1-3.8,2.7c-0.7,6.3-0.6,9.7,0.3,10.2c-1.7,1.7-2.7,3.6-3,5.5c-0.1,0.6-0.2,1.5-0.2,2.9
		c-0.2,1.5-0.4,2.7-0.6,3.6c-0.2,1.5,1.2,2.1,4.2,1.7c3-0.4,4.8-1.2,5.4-2.3c1,1,1.8,1.4,2.5,1.3c0.1,0,0.4,0,0.6-0.1
		c0.3,0,0.5-0.1,0.8-0.1c0.2,0,0.5-0.1,1-0.1c0.4-0.1,0.7-0.1,0.9-0.1c2.6-0.3,4.1-2.2,4.7-5.6c0.3-1.7-0.1-4-1-7
		c1.6-1.5,2.6-3.4,3-5.8c0-0.3,0.1-0.8,0.3-1.7c0.1-0.9,0.2-1.6,0.3-2.1c0.1-0.7,0.2-1.4,0.3-2.1c0.1-0.7,0.2-1.1,0.2-1.3L83.1,22.3
		z M20.5,49.9l0.3-2.1c0.3-2.1,0-3.8-0.9-5.1c1.3-1.3,2.1-2.9,2.4-4.9l0.9-5.9c-0.5-1.5-1.5-2.1-3.1-1.9c-0.1,0-0.7,0.1-1.6,0.2
		c-0.9,0.1-1.8,0.2-2.5,0.3l-0.9,0.1l-2.3,2.6c-1.8-1.3-3.8-1.8-6.1-1.5c-1,0.1-1.8,0.3-2.4,0.5l-1.1,1.6L3,36.1
		c-0.2,1.1-0.4,2.3-0.6,3.6c-0.2,1.1-0.3,1.8-0.3,1.9c-0.3,2,0.1,3.5,1.2,4.6c-1.8,3.3-2.8,6-3.2,8.3c-0.5,3,0.4,4.3,2.7,4
		c0.7-0.1,1.3-0.2,1.7-0.2l1-0.1c1.7-0.2,3.2-1,4.6-2.2c0.5,1,2.5,1.4,5.8,0.9l2.3-0.3c0.8-0.6,1.2-1.4,1.4-2.2l0,0
		C19.8,52.9,20.1,51.4,20.5,49.9L20.5,49.9z M36.8,159.9l4.8-30.7c0.1-0.7,0.3-1.7,0.5-3c0.2-1.3,0.3-2.1,0.4-2.5
		c0.5-3.5-0.1-6-1.8-7.5c0.5-0.5,1.2-1.1,1.9-1.8c0.7-0.7,1.3-1.2,1.6-1.6l5.5-35.3c-0.7-1.3-1.7-2-3.1-2.1c1-0.8,1.9-2.1,2.9-3.9
		c2-8.1,3.5-15.4,4.5-21.9c0.5-3.5,0.9-6.2,1-8c-0.7-0.7-1.6-1.3-2.5-1.6c2.1-1.1,3.6-3.8,4.2-8.2c0.1-0.4,0.2-1.1,0.3-2.1
		c0-1.1,0.1-1.9,0.2-2.5c-0.2-1.2-2.8-1.5-7.8-0.9c-0.9,0.1-2.8,1.5-5.8,4c-0.8-2.1-3.3-2.9-7.4-2.4c-0.3,0-0.9,0.1-1.8,0.2
		c-0.8,0.2-1.3,0.4-1.8,0.4c-1.9,0.2-3.2,2.7-3.9,7.3c-0.3,1.7-0.4,3-0.3,3.8c0.8,1,1.5,1.7,2.1,2l0.9,0.5c-3,0.9-5.1,5.5-6.4,13.9
		c-0.2,1.3-0.4,3.5-0.7,6.6c-0.3,3.1-0.6,5.7-0.9,7.7c-0.4,2.4-1,6.3-1.8,11.7c-0.8,5.4-1.5,9.6-2,12.6c-0.2,1.3,0.4,2.6,1.7,3.9
		c-1.5,0.6-2.4,1.4-2.7,2.4L13,137.3c0.5,0.9,1.4,1.4,2.7,1.5c-1.9,2.6-3.3,5.5-4.3,8.6l-4.5,29.2c-0.4,2.4,1.4,3.4,5.3,2.9l3-0.4
		c1.1-0.1,3.2-1.3,6.2-3.5c0.6,0.9,1.5,1.6,2.8,2.1c1.3,0,2.8-0.1,4.7-0.4c2.4-0.3,4.1-1,4.8-2c0.8-1,1.4-2.8,1.8-5.3
		c0.3-2.1-0.1-4.2-1.4-6.3C35.7,162.6,36.6,161.3,36.8,159.9L36.8,159.9z"/>
	<path class="st0" d="M164.7,87c1.5-9.9,2.7-17.2,3.4-22l-1.3-2.7l2-2.1l4.4-32.3c-0.6-0.9-1.1-1.6-1.6-2.1c1.8-0.6,2.8-1.7,3-3.3
		c0.7-4.7,1.2-8.1,1.4-10.3l-1.3-1.1c-0.2-0.2-1.2-0.3-3,0c-1.6,0.2-2.9,0.4-3.9,0.7c-1.5,0.6-2.8,1.4-3.8,2.3l-0.8,0.8
		c-0.6-1.7-2-2.4-4.4-2.1c-3.1,0.7-5.4,1.1-6.8,1.3c-2.3,0.4-3.7,1.6-4,3.6l-3.9,25.1c-0.4,2.8-0.1,5,1.1,6.5
		c-1.8,2.4-2.8,4.3-3,5.7l-3,19.4c-0.4,0.1-1,0.1-1.7,0.2c-1.7,0.2-3.3,1.1-4.9,2.7l-2.1-1.4c-1.7,0-2.8,0-3.4,0
		c-2,0.3-3.4,1.2-4,2.8l-1,6.5c-0.3,2.2,0.2,3.9,1.6,4.9c-1.8,1.5-2.8,3.3-3.2,5.5c0,0.1-0.1,0.7-0.3,1.7c-0.2,1-0.3,1.9-0.4,2.7
		l-0.3,1.7l0.4,1.2c0.5,0.1,1.4,0,2.5-0.1c2.5-0.3,4.7-1.3,6.3-3.1c1.3,1.4,2.9,1.9,4.7,1.7c0.1,0,0.4-0.1,0.9-0.1
		c0.3,0,0.5-0.1,0.6-0.1l-2.3,14.7l-2.3,14.5c-0.3,2.1,0.1,3.9,1.3,5.4l-2.5,2.8l-1,6.7c-0.6,4.1-1.3,10-2.1,17.8
		c0.8,1.3,2,1.8,3.8,1.6c0.1,0,0.9-0.2,2.2-0.5c1.3-0.3,2.7-0.6,4-0.8c1.4-0.2,2.7-1.1,3.9-2.7c0,1.8,2.9,2.3,8.6,1.6l0.6-0.1
		c1.6-0.2,2.9-1.1,4-2.6l2-12.9l-1.9-2.7c1.7-1.2,2.7-2.6,3-4.3l3.5-22.9l-0.5-1.4c-0.8,0-1.5-0.4-2.1-1c1.6-1.3,2.8-2.7,3.6-4.2
		l0,0C162,104.9,163.2,97.2,164.7,87L164.7,87z M111.3,92l3.3-3.7l6-38.8c0.1-0.6-0.5-1.2-1.8-2c0.6-0.8,1.4-1.5,2.4-2.2l4-26
		c-0.2-0.8-0.6-1.4-1.4-1.9c-1.4-0.1-2.3-0.1-2.9,0c-2.8,0.4-5.5,1.9-8,4.5c-1.1-2.1-3.6-2.9-7.5-2.4c-1.4,0.2-3,0.3-4.8,0.4
		c-0.9,0.3-1.6,0.9-2.2,1.9c-0.7,4.5-1.5,9-2.4,13.4c-0.9,4.4-1.3,6.5-1.3,6.4c-0.5,3.2,0,5.3,1.6,6.2c-2,2-3.8,7.9-5.3,17.7
		c-0.3,2-1,6.1-1.9,12.5c-1,6.2-1.8,11.4-2.4,15.7c-0.2,1,0.7,2.4,2.5,4.3c-1.9,1.6-3.2,3.4-4,5.5l-6.1,39.1
		c-0.1,1.3,0.6,2.8,1.8,4.5c-2,1.8-3.1,3.6-3.4,5.6l-2.8,17.8l1.1,0.9l8.3-1c1.5-0.3,2.7-1.2,3.8-2.8l1.7,1.7c2,0,3.6-0.1,4.7-0.2
		c2-0.3,3.9-0.8,5.6-1.5c1.8-1.6,2.9-3.6,3.3-6l3.9-25.1c-0.2-0.2-0.6-0.6-1.1-1c-0.5-0.4-0.8-0.7-0.9-0.8c0.7-1.2,1.5-2.2,2.2-3.2
		c1.2-7.5,3.2-18.9,6-34.5C113.3,94.6,112.6,93,111.3,92L111.3,92z"/>
	<path class="st0" d="M264,0c-1.4-0.1-2.5-0.1-3.2,0c-2.7,0.3-5.5,1.5-8.4,3.5l-1.1-1.1c-3.3-0.4-6.6-0.4-9.9,0
		c-1.9,0.2-3.3,0.5-4.3,0.8c-1.4,0.9-2.6,4.2-3.4,9.9c0.1,1.1,0.9,2.2,2.2,3.2l-1.9,1.5c-1.1,2.5-1.8,4.7-2.1,6.7
		c-0.2,1-0.2,2.3-0.1,3.9l1.3,1.4l11.3-1.4c1.3-0.8,2.4-1.8,3.4-2.9c0.6,1.6,1.9,2.2,4,2l6.1-0.8l0.7-0.1c1.4-0.7,2.5-1.6,3.4-2.5
		l0.3-1.9c0.2-1,0.3-2,0.5-3.1l0.2-1.5c0.3-2.2-0.4-3.7-2.1-4.3c2-1.1,3.3-3.6,3.9-7.7c0.3-2,0.5-3.5,0.5-4.6l0,0L264,0z
		 M250.1,82.6c0.5-3.2-0.2-5.7-2.2-7.7c2.5-1.4,4-4.1,4.6-7.9c0.7-4.7,0.7-7-0.2-6.9l-0.2,0c-0.9,0.1-2,0.3-3.4,0.4
		c-3.1,0.4-6,1.4-8.7,3.2l-2.2-1.8l-2.6,0.3c-1.1,0.1-2.4,0.3-3.6,0.5c-1.3,0.2-2,0.2-2.1,0.3c-2.4,0.3-3.9,2.3-4.5,5.9
		c-0.6,4.1-0.3,6.5,1,7.3c-1.7,1.7-2.7,3.7-3,6c0,0.1-0.1,0.7-0.3,1.7c-0.2,1.1-0.3,2.2-0.5,3.2l-0.3,1.9l0.5,1
		c1.7-0.1,4-0.3,6.9-0.7c5-0.6,8.4-1.7,10-3.3c1.5,1.2,2.7,1.7,3.5,1.6c4.4-0.6,6.8-1.6,7-3L250.1,82.6z M206.1,144.7
		c-1.2-1.2-2-2-2.2-2.2l0.5,0.4c1.2-1.5,2.1-2.6,2.5-3.2l2.5-16.2c1.6-10.3,3.7-24.1,6.5-41.6c0.2-2-0.4-3.6-1.8-4.9l3.1-3.7l8-51.5
		c0.1-0.6-0.5-1.2-1.6-1.9c1-1.8,1.8-3.1,2.5-3.8l1.4-9.3c-0.2-0.8-0.6-1.4-1.4-1.9c-1.4-0.1-2.4-0.1-2.9,0c-2.9,0.4-5.5,1.8-8,4.3
		c-1.1-1.9-3.6-2.7-7.6-2.2c-1.4,0.2-3.1,0.3-4.9,0.4c-0.9,0.3-1.6,0.9-2.2,1.9c-0.7,4.5-1.5,9-2.4,13.4c-0.9,4.4-1.3,6.5-1.3,6.4
		c-0.5,3.2,0.1,5.3,1.8,6.2c-2.3,3.1-3.6,5.8-4,8.2l-0.3,1.9c-0.4,2.7-0.7,5.3-0.8,8l-0.6,4c-0.2,1-0.5,2.5-0.9,4.5
		c-0.5,2-0.8,3.5-0.9,4.5c-0.7,4.8-0.1,8.2,2,10.1c-1.7,1.6-2.9,3.4-3.6,5.4l-6.3,37.9l-0.6,3.6c-0.5,3.1-0.2,5.7,0.9,7.8
		c-1.9,2-3,3.9-3.4,5.6l-3.3,21.2l1.1,0.9l11.4-1.4c1.3-0.3,2.5-1.3,3.6-2.9l1.8,1.8c1.1,0.1,2,0.2,2.7,0.1c1-0.1,2.6-0.6,4.7-1.4
		c1.8-1.6,2.9-3.6,3.3-6l0,0L206.1,144.7z M244.6,145.5c0.4-2.5,0.5-5.3,0.2-8.3c-0.8,0-1.3-0.2-1.4-0.7c0-0.1,0.5-0.5,1.3-1.2
		c0.9-0.7,1.4-1.3,1.6-2c0.2-0.7,0.4-1.7,0.6-2.9c0.3-2,0.3-4.1-0.1-6.4c-0.6,0.1-1.3,0.1-2.1,0.1c-0.9,0.1-1.4,0.2-1.7,0.2
		c-4.2,0.5-7.2,1.6-9.2,3.2c-1.4-1.2-3.2-1.7-5.5-1.4c-0.3,0-0.9,0.1-1.7,0.2c-1,0.1-1.9,0.2-2.6,0.3c-0.9,0.1-2.3,0.3-4.3,0.5
		c-2.7,1.2-4.4,3.9-5.1,8.3c-0.3,1.7-0.4,3.1-0.5,4.2c0.9,1,1.8,1.6,2.7,1.9c-1.8,1.5-3.1,3-3.9,4.6c-0.2,1.1-0.3,2.3-0.5,3.4
		l-0.3,1.7c-0.2,1.4,0,2.4,0.8,3l2.6-0.3c1.1-0.1,2.5-0.3,4-0.5c1.4-0.2,2.3-0.3,2.6-0.3c2.7-0.3,5-1.5,7-3.4
		c1,1.5,4.4,1.9,10.2,1.2c1.3-0.2,2.7-0.6,4.4-1.4l0,0C244,148.7,244.3,147.3,244.6,145.5L244.6,145.5z"/>
	<path class="st0" d="M197.3,207.5l3-2.2c1.3-2.8,2.3-6,2.8-9.5c0.5-3.1,0.6-5.5,0.5-7.1l-1.3-1.7l-14.9,1.9c-1,0.8-2.2,2.3-3.8,4.4
		c-0.6-2.6-3.3-3.5-7.9-3c-2.5,0.3-4.5,0.6-6,0.8l-0.6,0.1c-2.1,0.5-3.9,1.8-5.3,3.9c-0.3,1.8-0.7,3.8-1.2,6
		c-0.5,2.2-0.8,3.3-0.9,3.5c-0.5,3.3,0.5,5.5,3,6.8c-3.3,3.8-5.1,6.7-5.4,8.7l-0.5,3.1c-0.3,2-0.6,4.1-0.9,6.1l2,1.2
		c1,0.1,2.5,0,4.4-0.3c4.3-0.5,8.3-2.1,12.1-4.9l1.6,1.7c3.9,0.4,8.4,0.3,13.6-0.3l3.9-0.5c2.1-1.7,3.8-6.4,5-14.1l0,0
		C200.2,210.3,199.1,208.7,197.3,207.5L197.3,207.5z M185.1,276.3c-0.4,0.1-0.8,0.1-1.3,0.2l-3.4,0.4c-4.2,0.5-6.9,1.7-8.2,3.5
		c-1.8-1.4-5.8-1.7-11.8-1c-3.8,0.5-6.8,1-9.1,1.5l-1.5,2c-0.2,1.2-0.4,2.8-0.7,4.6c-0.2,1-0.3,2.2-0.5,3.4c-0.2,1-0.3,1.7-0.3,1.9
		c-0.6,3.9,0.1,6.6,2.2,7.9c-2.6,1.9-4.1,4.4-4.5,7.2l-1.3,8.7c0.9,2.1,3.8,2.9,8.5,2.3c1.3-0.2,4.1-0.7,8.5-1.7l4-3.5
		c3.3,2,6.8,2.8,10.7,2.3c0.4-0.1,1-0.1,1.6-0.2c0.9-0.1,1.4-0.2,1.6-0.2l0.6-0.1c1.7-0.2,3.3-5,4.8-14.4c0.4-2.7-0.5-4.8-2.7-6.4
		c3.2-4.5,5.1-8.8,5.7-13c0.3-1.7,0.3-2.9,0.3-3.7C187.3,276.8,186.4,276.2,185.1,276.3L185.1,276.3z M121.5,392.5
		c-0.9-1.1-1.6-2.1-2-3.1c1.9-1.5,2.9-2.6,3-3.4l11.9-76.6l-3.3-4.4c2.6-2.2,4.4-4.9,5.3-8.3c2.6-19.6,6.3-44.7,11-75.2
		c-0.1-0.6-0.4-1.3-0.9-2.2c-0.5-0.8-0.9-1.5-1.3-1.8l4-3.5l1.7-10.8c0.5-3.3-0.1-6.1-1.7-8.3c-2.8-0.5-4.7-0.6-6-0.5
		c-0.8,0.1-2.3,0.5-4.4,1.2l-3.6,3.2c-1.1-2.1-2.9-3-5.2-2.7l-15.7,2l-2.2,1.8l-4.2,31c-0.4,2.7,0.2,5.2,2,7.4
		c-3.1,4.1-5.1,9-6,14.8l-8.4,58.4c-0.4,2.5,0.3,4.8,2,7.1c-3.3,2.9-5.3,6.1-5.8,9.6c-0.6,4.2-1.3,9-1.9,14.4
		c-0.6,5.5-1.1,8.9-1.3,10.4c-0.2,1.5-0.5,3.5-1,6.2c-0.9,3-1.4,5.1-1.6,6.3c-0.1,0.4-0.2,1-0.3,1.9c-0.1,0.8-0.2,1.6-0.3,2.2
		c-0.5,2.9,0.4,6.1,2.6,9.5c-3,2-4.8,4.7-5.3,8c-0.2,1.2-0.3,3.5-0.4,6.8c-0.5,3.5-1,6.4-1.4,8.7c-0.9,6-1.9,10.7-2.8,14.1l2.2,3.7
		c3.6-0.5,7.3-1.1,11.1-1.9c3.8-0.8,6.9-2.7,9.2-5.5c2.6,2.9,6.1,4.1,10.3,3.6c1.3-0.2,3-0.6,5.2-1.3c1.6-1.2,2.5-2.3,2.7-3.4
		L121.5,392.5z"/>
	<path class="st0" d="M260.4,212.2c0.5-3.1,0.8-5.3,1-6.5c0.4-2.9,1-6.3,1.6-10.2c0.6-3.7,0.9-6,1.1-6.8c1-6.4,0.5-9.5-1.6-9.2
		c-0.8,0.1-1.9,0.2-3.1,0.4c-1.2,0.2-2.8,0.4-4.7,0.6c-3.9,0.5-6.4,2.1-7.5,4.9c-1-2.5-3-3.6-5.9-3.2l-3.1,0.4
		c-2.9,0.4-4.7,0.6-5.3,0.7c-4.4,0.5-7.1,4.5-8.3,12l-1.2,7.4c0.1,2.2,1.2,3.3,3.5,3.2c-2.1,2.3-3.8,4.2-4.9,5.8l-1.6,10.2
		c-0.7,4.8-1.6,10.4-2.6,17.1c-1,6.6-1.7,10.8-2,12.7c-0.9,5.6-0.4,8.2,1.5,8l-3.5,4.7c-0.5,3.5-1.4,9-2.6,16.4
		c-1.1,7.2-2,12.7-2.5,16.4c-0.6,3.7-1.4,9.3-2.6,16.7c-1.2,7.4-2,13-2.6,16.7c0.7,2.3,2,4,3.9,5c-0.6,0.5-1.9,1.2-3.9,2.3l-1.4,2.3
		l-5.2,33.5c-0.4,2.3,0.7,4.1,3.2,5.4l-4.8,4.9c-0.5,3.3-1,6.6-1.5,9.9l-0.7,4.6c-0.8,5.2,0.7,7.5,4.5,7l0.9-0.1
		c1.3-0.2,2.6-0.3,4.1-0.5l2.2-0.3c2.5-0.3,5.1-2,7.6-5.2c1.2,2.7,4.6,3.7,10.1,3c2.7-0.3,5.6-1.9,8.5-4.7
		c2.1-10.8,3.6-19.4,4.6-25.8l1.6-10.2c-0.9-0.9-1.9-2-2.9-3.3c3-4.8,4.7-8.6,5.2-11.3c0.3-1.7,0.6-3.8,1-6.4
		c0.4-2.6,0.7-4.3,0.8-5.1c0.2-1.2,0.7-4.3,1.4-9.3c0.8-5,1.4-9.3,2-13c1.1-7.2,1.9-12.9,2.4-17l-0.3-3c-0.9-1.1-1.4-2.6-1.7-4.4
		c2.4-1.9,3.8-4,4.4-6.3l6.7-43.4c0.3-1.7-0.5-4.2-2.2-7.6c2.7-3,4.4-6.5,5.1-10.7l0.2-1.2l0,0C259.6,217.7,259.9,215.3,260.4,212.2
		L260.4,212.2z"/>
	<path class="st0" d="M398.7,203.7c0.2-9.3-1.6-17.8-5.3-25.5c-1.5-1-2.4-2-2.6-3c-2.2-4.4-4.8-6.4-7.7-6c-0.4,0.1-1.2,0.5-2.4,1.2
		l-0.3-1.8c-3.8-3.4-8.3-4.7-13.3-4.1c-1.4-0.4-2.7-0.6-4-0.4c-3,0.4-4.9,3.6-5.8,9.5l-0.5,3.1c-0.7,4.3,0.4,6.9,3.1,7.8
		c-2,0.9-3.5,2.2-4.6,3.9c-0.7,3.1-1.2,5.9-1.6,8.4c-0.5,3.3,0.4,6.4,2.9,9.4c1.2,6.9,1.8,10.7,2,11.3c0.6,2.6,1.8,3.7,3.5,3.5
		l0.3,0c-1.4,1.6-2.9,3.5-4.6,5.7c-0.1,0.8-0.3,1.9-0.5,3.4c-0.2,1.4-0.4,2.4-0.5,3c-0.7,4.7-0.1,7,2,6.9l17.1-2.1
		c1.2-1.2,2-1.9,2.5-2.1c2.1,1.4,4.4,1.9,6.9,1.6c7.4-0.9,11.4-3.7,12.1-8.2c1.9-12,1-18.6-2.5-19.7
		C396.9,207.3,398.2,205.4,398.7,203.7L398.7,203.7z M317.3,363.1c0.7-4.5,0.9-8.3,0.5-11.3c-2.6-2.1-3.8-10.6-3.8-25.4
		c-1.3-0.6-3-1.5-4.9-2.4c1.6-1.6,3.7-4.2,6.5-7.8l5.4-41.1l0.7-4.3l1.9-12.4c1.3-4.2,2-6.6,2.1-7.2c1.1-7.2-0.1-11.3-3.7-12.3
		c2.4-0.7,4.6-1.9,6.8-3.6l0.4-2.5c0.5-3.1,1.3-5.8,2.5-8.2c4.5-10.1,7.7-16.5,9.8-19.2l3.1-17.7c-1.2-1.5-2.3-2.4-3.3-2.9l3.6-3.5
		c1.1-4.2,1.8-7.5,2.2-10c0.2-2.9-1.5-4.1-5.3-3.6c-4.8,0.6-13,5.2-24.4,13.7c-0.3,0.6-0.5,1.5-0.7,2.5c-0.2,1-0.2,1.7,0,2.1
		c4.1-3.5,6.5-5.8,7.2-6.7c-0.7,0.3-5.5,3.8-14.4,10.6c-6.5,8.3-11.1,16.9-13.9,25.8c-0.9,1.5-1.4,3.3-1.8,5.4
		c0.7,0.9,1.3,1.8,1.8,2.5c-3.7,2.3-6.2,5.8-7.5,10.7c-0.8,2.5-2,8.7-3.5,18.7l-1.8,11.8c-0.6,3.9,0.2,7.1,2.6,9.4
		c-1.8,1-3,1.8-3.4,2.2c-3.6,19.3-5.8,31.5-6.6,36.7c-3,19.2-2.9,29.7,0.4,31.6c-1.3,1.8-2.1,3.3-2.3,4.5
		c-2.3,14.9,2.9,27.8,15.7,38.8c0.6,0.1,1.5,0.1,2.8,0c1.5-0.2,2.5-0.4,3.2-0.7l0.7,1.7c1.5,3.9,5.5,5.4,12,4.6
		c0.6-0.1,1.8-0.4,3.6-1.1c1.2-1.2,1.9-2.1,2-2.7c0.1-0.6,0.2-1.4,0.4-2.5c-0.1-0.8-0.1-1.4,0-1.8c0.1-0.4,0.3-1.3,0.7-2.7
		c0.4-1.4,0.7-2.5,0.8-3.3c0.4-2.7,0.2-5.1-0.7-7.2c-0.6-0.1-0.9-0.3-0.9-0.5c1.8-2.2,2.9-3.9,3.2-5l0,0L317.3,363.1z M384.6,304.5
		c-0.4,0.1-1.3,0.2-2.5,0.3c-1.1,0.3-2,0.6-2.6,0.6c-0.4,0.1-1.2,0-2.2,0c-1.1,0.1-1.9,0.2-2.5,0.3c-2.9,1-4.9,2.6-6.1,5l-1.6-1.6
		l-3.8-1.7c-1.2,0-3.3,0.1-6.3,0.5c-2.8,0.3-4.9,0.7-6.4,1.1l-0.3,0c-2.8,0.3-4.8,4.4-6,12.3l-0.9,5.6c1.1,1.9,2,3,2.9,3.3
		c-2.5,2.5-4.9,6.6-7.3,12.2c-2.4,5.6-5,9.3-7.8,11.3c-1.2,1.2-1.9,2.2-2,3l-0.5,3.4c-0.1,0.4-0.2,1-0.3,1.9
		c-0.4,1.1-0.6,1.8-0.7,2.2c-0.5,3.1,0.9,5.9,4.3,8.3l-5.9,6.2l-2.1,11.8c1.1,1.1,3.1,1.4,6,1.1c3.4-0.4,6.5-1.3,9.2-2.7
		c2.8-1.4,4.7-3.6,5.9-6.8c1.2,0.5,2.4,0.6,3.6,0.5c5.9-0.7,13.9-9.5,23.9-26.4c2.5-5.2,3.9-8.9,4.2-11.2c0.3-1.9-0.6-3-2.6-3.3
		l3.3-3.1c3.9-7.8,6.6-16.5,8.1-26.2l0.9-5.6C386.3,305.1,385.6,304.4,384.6,304.5L384.6,304.5z"/>
	<path class="st0" d="M539.8,145c-0.8-0.1-2-0.1-3.4,0.1c-3,0.4-6.1,1.9-9.4,4.5l-2-3.1l-1.3,0.2c-0.8,0.1-2,0.3-3.5,0.4
		c-1.5,0.2-2.4,0.3-2.8,0.4c-2.1,0.3-4,1.6-5.6,4c-1,9.2-0.9,14.2,0.5,15c-2.5,2.5-3.9,5.2-4.4,8.1c-0.1,0.8-0.2,2.2-0.4,4.3
		c-0.4,2.3-0.6,4-0.8,5.2c-0.4,2.3,1.7,3.1,6.1,2.6c4.4-0.6,7.1-1.7,8-3.4c1.4,1.4,2.7,2.1,3.7,2c0.2,0,0.5-0.1,0.9-0.1
		c0.4-0.1,0.8-0.1,1.1-0.1c0.3,0,0.8-0.1,1.4-0.2c0.6-0.1,1.1-0.1,1.3-0.2c3.8-0.5,6.1-3.2,6.9-8.2c0.4-2.5-0.1-5.9-1.5-10.2
		c2.4-2.1,3.9-5,4.4-8.5c0.1-0.4,0.2-1.2,0.4-2.5c0.2-1.2,0.4-2.3,0.5-3.1c0.2-1,0.3-2.1,0.5-3.1c0.2-1,0.3-1.7,0.3-1.9L539.8,145z
		 M448,185.4l0.5-3.1c0.5-3.1,0-5.6-1.3-7.4c1.9-1.9,3.1-4.2,3.6-7.1l1.3-8.7c-0.7-2.1-2.2-3.1-4.5-2.8c-0.2,0-1,0.1-2.4,0.3
		c-1.4,0.2-2.6,0.3-3.6,0.5l-1.3,0.2l-3.4,3.8c-2.6-1.9-5.6-2.6-9-2.2c-1.5,0.2-2.7,0.4-3.5,0.7l-1.6,2.3l-0.5,3.4
		c-0.3,1.7-0.5,3.4-0.8,5.3c-0.3,1.7-0.4,2.6-0.4,2.8c-0.5,2.9,0.1,5.2,1.7,6.8c-2.6,4.8-4.2,8.8-4.7,12.1c-0.7,4.3,0.6,6.3,3.9,5.9
		c1-0.1,1.8-0.2,2.4-0.3l1.5-0.2c2.4-0.3,4.7-1.4,6.8-3.3c0.8,1.5,3.6,2,8.5,1.4l3.4-0.4c1.1-0.9,1.8-2,2-3.3l0,0
		C447,189.8,447.5,187.7,448,185.4L448,185.4z M471.9,346.7l7-45c0.2-1,0.4-2.5,0.7-4.3c0.3-1.9,0.5-3.1,0.6-3.7
		c0.8-5.2-0.1-8.8-2.6-10.9c0.8-0.7,1.7-1.6,2.7-2.6c1.1-1,1.8-1.8,2.4-2.3l8-51.8c-1-1.9-2.5-2.9-4.5-3.1c1.4-1.2,2.9-3.1,4.3-5.7
		c2.9-11.9,5.1-22.6,6.5-32.2c0.8-5.2,1.3-9.1,1.5-11.8c-1.1-1.1-2.3-1.8-3.7-2.3c3.1-1.6,5.2-5.6,6.2-12c0.1-0.6,0.3-1.7,0.5-3.1
		c0-1.6,0.1-2.9,0.3-3.7c-0.4-1.8-4.2-2.2-11.4-1.3c-1.3,0.2-4.1,2.1-8.5,5.9c-1.2-3.1-4.8-4.3-10.8-3.5c-0.4,0.1-1.3,0.2-2.6,0.3
		c-1.1,0.3-2,0.6-2.6,0.6c-2.8,0.4-4.7,3.9-5.8,10.8c-0.4,2.5-0.6,4.3-0.5,5.5c1.2,1.5,2.2,2.5,3.1,3l1.3,0.8
		c-4.3,1.4-7.5,8.1-9.4,20.3c-0.3,1.9-0.6,5.1-1,9.7c-0.4,4.6-0.8,8.4-1.3,11.3c-0.5,3.5-1.4,9.3-2.7,17.2c-1.2,8-2.2,14.1-2.9,18.5
		c-0.3,1.9,0.5,3.8,2.5,5.8c-2.2,0.9-3.5,2.1-4,3.5l-8.2,53.1c0.7,1.3,2,2.1,4,2.2c-2.8,3.8-4.9,8-6.3,12.7l-6.6,42.8
		c-0.5,3.5,2,4.9,7.7,4.2l4.4-0.6c1.7-0.2,4.7-1.9,9.2-5.1c0.8,1.3,2.2,2.4,4.2,3.1c1.9,0,4.2-0.2,6.9-0.6c3.6-0.4,6-1.4,7.1-2.9
		c1.2-1.5,2-4.1,2.6-7.8c0.5-3.1-0.2-6.2-2-9.2C470.4,350.8,471.6,348.8,471.9,346.7L471.9,346.7z"/>
	<path class="st0" d="M596,170.2c0.5-3.1,0.8-5.3,1-6.5c0.5-2.9,1-6.3,1.6-10.2c0.6-3.7,0.9-6,1.1-6.8c1-6.4,0.5-9.5-1.6-9.2
		c-0.8,0.1-1.9,0.2-3.1,0.4c-1.2,0.2-2.8,0.4-4.7,0.6c-3.9,0.5-6.4,2.1-7.5,4.9c-1-2.5-3-3.6-5.9-3.2l-3.1,0.4
		c-2.9,0.4-4.7,0.6-5.3,0.7c-4.4,0.5-7.1,4.5-8.3,12l-1.2,7.4c0.1,2.2,1.2,3.3,3.5,3.2c-2.1,2.3-3.8,4.2-4.9,5.8l-1.6,10.2
		c-0.7,4.8-1.6,10.4-2.6,17c-1,6.6-1.7,10.8-2,12.7c-0.9,5.6-0.4,8.2,1.5,8l-3.5,4.7c-0.5,3.5-1.4,9-2.5,16.4
		c-1.1,7.2-2,12.7-2.5,16.4c-0.6,3.7-1.4,9.3-2.6,16.7c-1.2,7.4-2,13-2.6,16.7c0.7,2.3,2,4,3.9,5c-0.6,0.5-1.9,1.3-3.9,2.3l-1.4,2.3
		l-5.2,33.5c-0.4,2.3,0.7,4.1,3.2,5.4l-4.8,4.9c-0.5,3.3-1,6.6-1.5,9.9l-0.7,4.6c-0.8,5.2,0.7,7.5,4.5,7l0.9-0.1
		c1.3-0.2,2.6-0.3,4.1-0.5l2.2-0.3c2.5-0.3,5.1-2.1,7.6-5.2c1.2,2.7,4.6,3.7,10.1,3c2.7-0.3,5.6-1.9,8.5-4.7
		c2.1-10.8,3.6-19.4,4.6-25.8l1.6-10.2c-0.9-0.9-1.9-2-2.9-3.3c3-4.8,4.7-8.6,5.2-11.3c0.3-1.7,0.6-3.8,1-6.4
		c0.4-2.6,0.7-4.3,0.8-5.1c0.2-1.2,0.7-4.3,1.4-9.3c0.8-5,1.4-9.3,2-13c1.1-7.2,1.9-12.9,2.4-17l-0.3-3c-0.9-1.1-1.4-2.6-1.7-4.4
		c2.4-1.9,3.8-4,4.4-6.3l6.7-43.4c0.3-1.7-0.5-4.2-2.2-7.6c2.7-3,4.4-6.5,5.1-10.7l0.2-1.2l0,0C595.2,175.7,595.5,173.3,596,170.2
		L596,170.2z"/>
	<path class="st0" d="M739.9,178.3c0.3-4.7-1-7.9-3.9-9.5c1.7-1.8,2.7-2.9,3-3.1c0.2-1.4,0.3-3.2,0.2-5.2
		c-0.5-9.1-2.5-17.1-6.2-24.1c-1.9-1.4-3.9-1.9-6.3-1.6l-0.9,0.1c0.6-1.3,1-2.1,1-2.6c0.1-0.8,0-1.6-0.2-2.4
		c-6.8-5.4-15.6-8-26.4-7.6c-1.3,0.6-2.4,1.7-3.3,3.5l-0.5,3.1c-0.5,2.9-0.6,5.8-0.4,8.9l0.6-0.1c0.6-0.1,1.1,0.3,1.4,1
		c-0.8,1.3-2.1,2.7-3.7,4.1l-2.7,17.4c-0.2,1.2,0.3,1.8,1.6,1.6c3.2,2.6,4.8,6,4.8,10c0.3,4.6,0.5,9.2,0.6,13.6
		c0.3,3.6,1.8,5.7,4.5,6.1c-2.8,2.2-4.5,5-5,8.5c0,0.2-0.1,0.9-0.3,2.2c-0.2,1.2-0.4,2.4-0.5,3.4c-0.4,2.5-0.7,4.4-0.9,5.9
		l-2.6,16.7l-2.1,13.3l-5.2,29.8c0.6,1.5,1.8,3.2,3.6,5c-2.1,1.5-3.6,2.7-4.6,3.6c-5,16-10,26.1-15.2,30.2c-1.5,1.4-2.3,3.1-2.7,5.2
		l-1.5,9.9c-0.5,3.5,0.7,5.1,3.6,4.7c-3.1,2.4-4.7,3.7-5,4c-0.1,0.4-0.2,1.2-0.4,2.5c-0.4,1.1-0.6,1.9-0.7,2.5
		c-0.1,0.4-0.1,1.2-0.1,2.4c-0.2,1.2-0.4,2.3-0.5,3.1c-0.2,3.7,1.3,5.3,4.5,4.9c2.7-0.3,8.1-2.6,15.9-6.9l0.4-2.5
		c0.4,0.2,1.1,0.2,2.2,0c1.3-0.2,2.7-0.6,4.3-1.4c13.9-11.1,23.3-24.5,28.3-40.3c0.3-4.9,0.2-7.8-0.5-8.8
		c4.5-2.4,8.3-13.6,11.4-33.6c1.4-8.9,2.6-20.8,3.7-35.7l-2.6-1.5c2.2-1.9,3.9-5,4.9-9.3c1.1-4.3,2.1-8.6,3.2-13
		C739.1,190.2,739.5,184.2,739.9,178.3L739.9,178.3z M652.5,337.2c-1.4-0.4-2.3-0.9-2.9-1.5l1-0.4l3.1-3.7l2.5-16.1
		c0.3-1.7-0.3-2.7-1.7-3.1c-3.4-2.2-5.1-10.6-5.1-25.2c-0.7-1.1-2.1-2.4-4.4-3.7c3-2.2,4.8-5,5.3-8.3c0.1-0.4,0.2-1.3,0.4-2.8
		c-0.4-1.4-0.5-2.7-0.3-3.9c0.3-1.9,0.8-3.5,1.7-4.8l0.4-8.9l3.2-20.8l5.9-30.2c-0.9-2.1-2-3.9-3.2-5.4c1.9-1.5,3.3-2.6,4.3-3.6
		c4.7-15.8,9.3-25.6,13.9-29.4c2.1-1.3,3.7-6.1,5.1-14.6c0.2-1.4-0.4-3.2-2-5.2c0.1-0.4,0.4-0.8,1.1-1c1.9-3.1,3.1-6.3,3.7-9.6
		c0.2-1,0.2-2.8,0.2-5.2c0.6-3.9-0.4-5.7-2.9-5.4c-6.5,0.8-12.3,3.3-17.3,7.5l-0.4,2.3c-1.2-0.3-2.2-0.3-3.1-0.2
		c-0.6,0.1-1.6,0.4-2.9,1c-17.8,16.4-27.8,31.6-30,45.7c-0.3,1.7,0,3,0.9,4.1c-4.2,3.2-7.8,14.2-10.7,33.3c-1.5,9.7-3,21.9-4.4,36.4
		l2.6,1.2c-3.2,3-5.1,6.6-5.7,10.7l-1.8,11.8c-0.5,5.9-1,11.9-1.5,17.8c-0.1,4.9,1.2,8.3,4,10.1l-3,3.1c0,2.6,0.2,4.3,0.4,5.1
		c0.8,9.4,3.3,17.1,7.6,23.1c1,1.5,2.8,2.1,5.3,1.8l0.9-0.1c-0.6,1.3-0.9,2.1-1,2.3c-0.5,3,2,5.7,7.4,8.1c5.4,2.4,11.7,3.1,18.9,2.2
		c1-0.1,2.1-1,3.2-2.5l0,0C651.7,346.5,652.1,342.5,652.5,337.2L652.5,337.2z"/>
	<path class="st0" d="M883.9,264.3c0.1-0.8,0.3-2,0.5-3.4c0.2-1.5,0.4-2.4,0.4-2.8c0.4-2.7-0.2-4.7-1.8-6.2l2.9-6.8
		c0.5-1.7,1.2-4.4,2.2-8.2l7.8-50c-0.7-0.7-1.8-1.6-3.3-2.6c1.3-1.4,2.3-2.8,3.1-4.3c2.5-10.3,5-23.5,7.5-39.6l1.4-9
		c0.6-3.5-0.2-6.1-2.2-7.6c1.3-2,2.8-3.8,4.3-5.4l2.4-15.2c0.3-1.9-0.2-3.1-1.6-3.8c-0.4,0.1-0.9,0.1-1.6,0.2
		c-0.9,0.7-1.5,1.1-1.7,1.1c-1.3,0.2-2.5,0.2-3.8,0c-1.3-0.1-2.2-0.2-2.6-0.1c-2.3,0.3-4.1,1.8-5.3,4.6c-4-2.1-8.6-2.9-13.8-2.2
		c-0.2,0-0.7,0.1-1.6,0.2c-0.7,0.3-1.2,0.5-1.6,0.5c-2.4,1.1-3.9,3.1-4.3,6c-0.4,2.3-0.4,4.6-0.2,7c-1.4,5.2-2.4,9.4-2.9,12.5
		c-1,6.4-0.2,11.1,2.5,14c-2.1,0.3-3.8,1.1-5,2.5l-4.5,29.1c-0.5,3.3-0.1,5.4,1.2,6.2l-2.6,6.1c-0.6,1.3-1.1,3.4-1.5,6.3
		c-0.9,6-0.3,14.4,2,25.3c0.5,0.7,0.7,1.4,0.6,2.1l-0.1,0.6c0.4,9.7,2.4,15.5,6.3,17.4l-1.3,2.3c-0.6,1.1-1,2.2-1.2,3.5
		c-0.1,0.6-0.1,1.7,0.1,3.3c2.6,24.2,5.5,46.3,8.6,66.4c0.4,2.4,1,3.5,1.6,3.4c0.6-0.1,1.2-1.7,1.7-4.8l0.6-4
		c-0.1,0.4,0.7-3.7,2.4-12.5c1.7-8.7,3.2-17.7,4.6-26.8C883.6,268.3,883.5,266.6,883.9,264.3L883.9,264.3z M856.4,303.5
		c2.2-2.1,3.4-4.1,3.7-5.9c0.1-0.8-0.1-2-0.7-3.6c-4.7-24.1-7.4-39.3-8.1-45.5l-2.4-2.7c-0.3-0.8-0.4-1.4-0.4-1.8
		c-0.1,0.4,0.6-1.1,1.9-4.5c-2.3-21-3.8-33.2-4.5-36.8c-1.4-8.3-3.1-12.6-5.2-12.7c1.3-1.8,2-3.1,2.2-3.9c0.3-1.7-0.5-9.2-2.4-22.8
		c-1.4-10.8-2.2-16.4-2.3-17c-0.9-3.7-2.7-5.5-5.4-5.4c1.1-0.5,1.9-1.9,2.2-4.2c0.8-5.4,0.2-13.7-2-25c-0.7-1.9-3.9-2.5-9.6-1.8
		c-3,0.4-5.7,1.8-8.1,4.4c-2.4-1.9-6.5-2.5-12.4-1.8c-3.8,0.5-5.9,1.9-6.3,4.4c-0.8,5-0.3,10.6,1.4,16.8c1.7,6.3,3.7,9.6,5.9,9.9
		c-1.6,2-2.5,3.8-2.7,5.5c-0.4,2.3,0.7,12.4,3.1,30.3c1.3,10.2,2.6,15.5,3.7,15.9c2.3,0.9,3.5,1.7,3.4,2.3c-0.2,1-1.2,2.8-3,5.2
		c2.1,34.3,5.8,51.5,11.2,51.4c-1.1,2-2.5,4-4.3,6c2.1,16.9,3.9,29.9,5.5,38.8c0.9,2.3,2.9,3.4,5.9,3.2c-2.2,2.3-3.5,4.4-3.8,6.2
		c-1.3,8.3-0.5,13.4,2.2,15.5c2,1.8,6.5,2.2,13.4,1.4c3.6-0.5,6-2.2,7.3-5.2c0.2,2.8,1.5,4.1,4.1,3.7l0.6-0.1
		c1.5-0.2,2.8-0.4,4.1-0.5l1.9-0.2c2.7-0.3,4.3-1.6,4.6-3.9c0.2-1.2-0.2-5.3-1.2-12.3l0,0C859.7,304.9,858.4,303.8,856.4,303.5
		L856.4,303.5z M784.9,302.9c1.2-1,2.9-2.5,5.1-4.6c0.5-1.9,1-4.4,1.5-7.5c0.4-2.5,0.8-5.4,1.4-8.9c0.5-3.4,0.9-5.6,1-6.7
		c0.2-1,0.4-2.5,0.7-4.4c0.3-1.9,0.5-3.1,0.6-3.7c0.5-2.9-0.4-5-2.4-6.4l4-3.8l2.7-17.7c0.9-6,0.9-11.8-0.2-17.4
		c-0.7-4.8-1.4-9.5-1.9-14.1c-0.7-3.6-2.3-5.3-4.6-5.2c1-2.6,1.6-4.5,1.8-5.7c1.1-6.8,0.6-13.8-1.4-20.8c-1.9-6.5-4-9.7-6.3-9.6
		c1.6-2.6,2.7-5.2,3.1-7.7c0.3-1.9-0.3-9.4-1.8-22.6c-1.5-14.4-3.2-21.5-5.1-21.3c-1.5,0.2-2.7,3.2-3.6,9
		c-1.6,10.1-1.4,16.4,0.5,18.8l-3.4,4.1c-3.4,20.3-5.8,34.4-7.2,42.3c-0.5,2.9,0.8,5.3,3.9,7.1c-1.7,1.8-3.5,3.6-5.1,5.2
		c-2,10-4.1,22.5-6.5,37.6l-0.6,3.7c-0.8,5.2,0.1,8,2.7,8.5l-3.6,3.5c-2.6,12.5-4.3,21.7-5.2,27.7c-1.4,9.1-1.7,14.8-0.8,17.1
		c1,0.5,1.4,1.1,1.3,1.7c0.1-0.6-1,0.8-3.2,4.3l-4.7,24l-0.1,0.6c-0.7,4.4,1.2,6.2,5.6,5.7c0.4-0.1,0.8-0.1,1.3-0.2
		c0.6-0.1,1.1-0.1,1.3-0.2c0.8-0.1,1.9-0.2,3.2-0.4c3.2-0.4,6-2.2,8.6-5.3c1.7,2.6,4.2,3.7,7.5,3.3l4.4-0.6c3.8-0.5,6-2.8,6.7-6.9
		c0.1-0.6,0.4-2.4,0.8-5.3c0.5-2.9,0.9-5.5,1.2-7.8c0.5-3.1,0.9-5.5,1.1-7.1C788.5,304.1,787.1,303.3,784.9,302.9L784.9,302.9z"/>
	<path class="st0" d="M1096.7,75.3c-0.8-0.1-2-0.1-3.4,0.1c-3,0.4-6.1,1.9-9.4,4.5l-2-3.1l-1.3,0.2c-0.8,0.1-2,0.3-3.5,0.4
		c-1.5,0.2-2.4,0.3-2.8,0.4c-2.1,0.3-4,1.6-5.6,4c-1,9.2-0.9,14.2,0.5,15c-2.5,2.5-3.9,5.2-4.4,8.1c-0.1,0.8-0.2,2.2-0.4,4.3
		c-0.3,2.3-0.6,4-0.8,5.2c-0.4,2.3,1.7,3.1,6.1,2.6c4.4-0.6,7.1-1.7,8-3.4c1.4,1.4,2.7,2.1,3.7,2c0.2,0,0.5-0.1,1-0.1
		c0.4-0.1,0.8-0.1,1.1-0.1c0.3,0,0.8-0.1,1.4-0.2c0.6-0.1,1.1-0.1,1.3-0.2c3.8-0.5,6.1-3.2,6.8-8.2c0.4-2.5-0.1-5.9-1.5-10.2
		c2.4-2.1,3.9-5,4.4-8.5c0.1-0.4,0.2-1.2,0.4-2.5c0.2-1.3,0.4-2.3,0.5-3.1c0.2-1,0.3-2.1,0.5-3.1c0.2-1,0.3-1.7,0.3-1.9L1096.7,75.3
		z M1004.9,115.6l0.5-3.1c0.5-3.1,0-5.6-1.3-7.4c1.9-1.9,3.1-4.2,3.6-7.1l1.3-8.7c-0.7-2.1-2.2-3.1-4.5-2.8c-0.2,0-1,0.1-2.4,0.3
		c-1.4,0.2-2.6,0.3-3.6,0.5l-1.3,0.2l-3.4,3.8c-2.6-1.9-5.6-2.6-9-2.2c-1.5,0.2-2.7,0.4-3.5,0.7l-1.6,2.3l-0.5,3.4
		c-0.3,1.7-0.5,3.4-0.8,5.3c-0.3,1.7-0.4,2.6-0.4,2.8c-0.4,2.9,0.1,5.1,1.7,6.8c-2.6,4.8-4.2,8.8-4.7,12.1c-0.7,4.3,0.6,6.3,3.9,5.9
		c1-0.1,1.8-0.2,2.4-0.3l1.5-0.2c2.5-0.3,4.7-1.4,6.8-3.3c0.8,1.5,3.6,2,8.5,1.4l3.4-0.4c1.1-0.9,1.8-2,2-3.3l0,0
		C1003.9,120.1,1004.3,117.9,1004.9,115.6L1004.9,115.6z M1028.8,277l7-45c0.2-1,0.4-2.5,0.7-4.3c0.3-1.9,0.5-3.1,0.6-3.7
		c0.8-5.2-0.1-8.8-2.6-10.9c0.8-0.7,1.7-1.6,2.7-2.6c1.1-1,1.8-1.8,2.4-2.3l8-51.8c-1-1.9-2.5-2.9-4.5-3.1c1.4-1.2,2.9-3.1,4.3-5.7
		c2.9-11.9,5.1-22.6,6.5-32.2c0.8-5.2,1.3-9.1,1.5-11.8c-1.1-1.1-2.3-1.8-3.7-2.3c3.1-1.6,5.2-5.6,6.2-12c0.1-0.6,0.3-1.7,0.5-3.1
		c0-1.6,0.1-2.9,0.3-3.7c-0.4-1.8-4.2-2.2-11.4-1.3c-1.3,0.2-4.1,2.1-8.5,5.9c-1.2-3.1-4.8-4.3-10.8-3.5c-0.4,0.1-1.3,0.2-2.6,0.3
		c-1.1,0.3-2,0.6-2.6,0.6c-2.8,0.3-4.7,3.9-5.8,10.8c-0.4,2.5-0.6,4.3-0.5,5.5c1.2,1.5,2.2,2.5,3.1,3l1.3,0.8
		c-4.3,1.4-7.5,8.1-9.4,20.3c-0.3,1.9-0.6,5.1-1,9.7c-0.4,4.6-0.8,8.4-1.3,11.3c-0.5,3.5-1.4,9.3-2.7,17.2c-1.2,8-2.2,14.1-2.9,18.5
		c-0.3,1.9,0.5,3.8,2.5,5.8c-2.2,0.9-3.5,2.1-4,3.5l-8.2,53.1c0.7,1.3,2,2.1,4,2.2c-2.8,3.8-4.9,8-6.3,12.6l-6.6,42.8
		c-0.6,3.5,2,4.9,7.7,4.2l4.4-0.6c1.7-0.2,4.7-1.9,9.2-5.1c0.8,1.3,2.2,2.4,4.2,3.1c1.9,0,4.2-0.2,6.9-0.6c3.6-0.5,5.9-1.4,7.1-2.9
		c1.2-1.5,2-4.1,2.6-7.8c0.5-3.1-0.2-6.2-2-9.2C1027.2,281,1028.5,279.1,1028.8,277L1028.8,277z"/>
	<path class="st0" d="M1199,266.6c-0.5-2-2.1-3-4.8-3c2.5-1.5,4.3-3.5,5.6-5.9l2.6-26.5l0.9-5.9c0.5-2.9-0.8-4.1-3.7-3.8
		c2.3-1.7,4.1-3.5,5.2-5.5c0.7-6,1-11.7,0.8-17.1c-0.7,0.3-1.2,0.5-1.6,0.5c-0.8,0.1-1.2-0.2-1.1-0.8c0.3-1.7,1.2-3.3,2.9-4.9
		c-2.8-12.8-9.5-18.7-20.2-17.5c-1.7,0.2-2.4-0.4-2.2-1.9c0.2-1,1.1-1.9,2.9-2.5c4.4-0.9,8.4-2.7,12.2-5.2
		c9.4-8.7,16-21.2,19.8-37.7c0.6-5.1-1.3-7.5-5.7-7.2c5.1-4.9,7.8-7.9,8.2-8.9c1.9-12,0.9-22.8-2.7-32.5c-0.7-1.1-1.8-1.6-3.5-1.4
		c-1.1,0.1-2.3,0.6-3.6,1.4c1.5-1.8,2.4-3.6,2.7-5.5l0.2-1.2c-6.8-7.9-18.3-10.8-34.3-8.8c-6.5,0.8-10,2.7-10.5,5.6l-1.9,12.1
		c2.2,1.5,3.8,2.8,4.7,3.7c-3.9,2.5-5.9,4.4-6.1,5.6l-1.5,9.6c-0.3,1.9,1.4,3,5.2,3.5c3.8,0.4,6.2,1.4,7.5,2.9
		c1.7,2.2,2.4,6.4,2.1,12.5c-0.1,4.7,0.9,6.9,3,6.6l0.6-0.1c-2.5,1.3-4.1,3.5-5,6.4c-0.9,2.9-1.7,5.9-2.6,8.8
		c-3.9,10.4-9.2,16-15.9,16.9l-0.6,0.1c-1.5,0.2-2.7,1.5-3.7,3.8l-1.9,12.4c1,1.5,2.7,2.1,5,1.8c-3.9,2.3-5.9,4.2-6.1,5.6l-2,12.7
		c-0.4,2.3,0.4,3.4,2.3,3.4c4.1,0.1,8.4,2.8,13,8.1c-0.2,5.5,1.2,8.7,4.4,9.5c-2.6,0.7-3.9,1.4-4,2l-1,6.5c-0.3,1.7-0.6,3.8-1,6.5
		c-0.2,1.5-0.5,3.2-0.8,5.3c-0.3,1.9-0.5,3-0.5,3.4c-0.5,2.9,1.3,5,5.2,6.3c-4.8,1.8-7.6,5-8.3,9.6c-0.3,1.9-0.3,10.1-0.1,24.7
		c0.8,2.7,1.9,4,3.4,3.8l2.8-0.4c0.6-0.1,1.4-0.2,2.4-0.3s1.6-0.2,2-0.3c3.3-0.4,6-2.3,7.9-5.6c0.4,3,2.5,4.3,6.5,3.7
		c0.4-0.1,0.9-0.1,1.6-0.2c0.8-0.1,1.4-0.2,1.6-0.2c0.6-0.1,1.4-0.2,2.2-0.3c1-0.1,1.8-0.2,2.2-0.3c4.6-0.6,7.2-2.3,7.9-5.2
		C1199,272.7,1198.9,269.7,1199,266.6L1199,266.6z M1128.6,260.5c0.6-3.9,0-7.1-1.9-9.5c2.9-4,4.5-6.9,4.7-8.5l8.3-55.5
		c0-2.6-0.8-4.6-2.5-5.8c1.5-2.6,2.7-4.2,3.3-4.7l1.4-3.5c3-18.2,5.6-34.1,7.7-47.5c0.8-5,0.1-8.5-2.1-10.7c1.6-1.6,3-3,4.4-4.2
		c2.8-18,4.8-31.3,5.9-40c-0.5-2-2.5-2.7-6-2.3c-0.8,0.1-3.1,0.6-6.9,1.5c-2.6,0.9-4.7,2.3-6.4,4.1c-0.3-1.7-1.5-2.7-3.5-2.8
		c-1-0.1-4,0.1-8.9,0.5c-3.6,0.7-5.8,1.8-6.7,3.6l-4.1,26.7l2.2,4c-2.1,1.7-3.4,3.8-3.8,6.3l-5.1,32.9l0.5,2.4
		c0.9,0.1,1.8,0.6,2.6,1.5c-1.8,1.5-3.4,3.5-4.7,6.1c-1.9,12-3.2,20.8-4.1,26.4c-0.9,6-2.3,14.6-4,25.8l1.2,4.1l-3,3.4
		c-1.8,8.8-3,15.3-3.7,19.7c-1.5,9.7-2.5,18.7-2.9,26.9c1.1,0.7,1.9,1.7,2.3,3.1c-2.6,0.9-4.2,2.6-4.8,4.9
		c-0.8,5.4-1.6,10.6-2.4,15.5c-0.8,5-1.1,7.2-1.1,6.8c-0.3,1.9,0.7,2.6,3,2.4c0.2,0,0.8-0.1,1.9-0.2c1-0.1,2-0.2,2.8-0.4
		c1.5-0.2,2.7-0.3,3.8-0.5c2.1-0.5,4-1.8,5.5-3.9l1.3-2.1c-0.1,3.5,3.7,4.7,11.4,3.7l5.3-0.7c3.3-1.6,5.3-4.4,5.9-8.3
		c0.1-0.8,0.4-2.5,0.8-5c0.4-2.5,0.7-4.6,1-6.5c0.6-3.5,1-6.3,1.3-8.4L1128.6,260.5z"/>
	<path class="st0" d="M1295.7,82.6c0.5-3.1,0.8-5.3,1-6.5c0.4-2.9,1-6.3,1.6-10.2c0.6-3.7,0.9-6,1.1-6.8c1-6.4,0.5-9.5-1.6-9.2
		c-0.8,0.1-1.9,0.2-3.1,0.4c-1.3,0.2-2.8,0.4-4.7,0.6c-3.9,0.5-6.4,2.1-7.5,4.9c-1-2.5-3-3.6-5.9-3.2l-3.1,0.4
		c-2.9,0.4-4.7,0.6-5.3,0.7c-4.4,0.5-7.1,4.5-8.3,12l-1.1,7.4c0.1,2.2,1.2,3.3,3.5,3.2c-2.1,2.3-3.8,4.2-4.9,5.8l-1.6,10.2
		c-0.7,4.8-1.6,10.4-2.6,17c-1,6.6-1.7,10.8-2,12.7c-0.9,5.6-0.4,8.2,1.5,8l-3.5,4.7c-0.6,3.5-1.4,9-2.6,16.4
		c-1.1,7.2-2,12.7-2.6,16.4c-0.6,3.7-1.4,9.3-2.6,16.7c-1.1,7.4-2,13-2.6,16.7c0.7,2.3,2,4,3.9,5c-0.6,0.5-1.9,1.2-3.9,2.3l-1.4,2.3
		l-5.2,33.5c-0.4,2.3,0.7,4.1,3.2,5.4l-4.8,4.8c-0.5,3.3-1,6.6-1.5,9.9l-0.7,4.6c-0.8,5.2,0.7,7.5,4.5,7l0.9-0.1
		c1.3-0.2,2.6-0.3,4.1-0.5l2.2-0.3c2.5-0.3,5.1-2.1,7.6-5.2c1.2,2.7,4.6,3.7,10.1,3c2.7-0.3,5.6-1.9,8.5-4.7
		c2.1-10.8,3.6-19.4,4.6-25.8l1.6-10.2c-0.9-0.9-1.9-2-2.9-3.3c3-4.8,4.7-8.6,5.2-11.3c0.3-1.7,0.6-3.8,1-6.4
		c0.4-2.6,0.7-4.3,0.8-5.1c0.2-1.2,0.7-4.3,1.4-9.3c0.8-5,1.4-9.3,2-13c1.1-7.2,1.9-12.9,2.4-17l-0.3-3c-0.9-1.1-1.4-2.6-1.7-4.4
		c2.4-1.9,3.8-4,4.4-6.3l6.7-43.4c0.3-1.7-0.5-4.2-2.2-7.6c2.7-3,4.4-6.5,5.1-10.7l0.2-1.2l0,0C1294.9,88.1,1295.2,85.7,1295.7,82.6
		L1295.7,82.6z"/>
	<path class="st0" d="M1424.1,168c3-2.2,4.8-4.7,5.2-7.6l0.1-0.9c-1.7-6.3-4.2-10.6-7.6-13c-2.8-1.9-7.4-3.1-13.7-3.8
		c-1.4-0.2-2.2-0.7-2.2-1.5c0.4-1.3,1.8-2.4,4.2-3.3c4.3-1.3,7.6-2.7,9.9-4c10.4-8.2,17.2-21.1,20.6-38.7c-0.5-2-1.7-3.5-3.6-4.7
		c1.1-1.5,2.8-3.3,5.1-5.2l0.3-1.9c2-13,0.6-24.6-4.2-34.7c-1.5,0-3.5,0.1-6.3,0.5l-2.2,0.3c0.9-1.7,1.4-3.2,1.6-4.5
		c0.5-3.5-2-5.7-7.7-6.6c-3.8-0.7-12.4-1-25.9-0.7c-0.6-0.1-1.5-0.1-2.8,0c-3.2,0.4-5.9,2.2-8.3,5.3c-0.4,1.1-0.7,2.5-1,4.4
		c-0.7,4.8,0.2,8.5,2.9,11.2c-3,3.6-4.9,7.6-5.6,11.9l-0.4,2.8c-0.5,3.5,1.3,5,5.5,4.5c1.7-0.2,3-0.4,4.1-0.5
		c4.6,1.2,7.5,4.6,9,10.2c1.4,5.6,3.1,8.4,5.2,8.6l0.7,1.4c-2.7,1.8-4.9,4.5-6.6,8.4c-2.7,6.6-4.2,10.2-4.5,10.8
		c-3.4,5.7-8.8,9-16.4,9.9l-2.2,0.3c-1.6,0.8-2.8,2.3-3.8,4.4l-0.4,2.8c-0.3,1.8-0.6,5-0.8,9.5c1,1.5,1.7,2.6,2,3.4
		c-2.2,0.9-3.5,2.3-3.8,4.4l-1.9,12.3l0.9,2c0.8-0.1,2.2-0.3,4.1-0.5c4.8-0.6,9,0.5,12.5,3.3c2,3,3.5,7.6,4.4,13.7
		c0.8,4.4,2.2,6.5,4.3,6.5l-5.9,4.1c-1.2,7.9-4.9,15.4-11,22.7c-3.6,2.9-7.8,4.8-12.5,5.8l-2.6,0.3c-0.9,0.1-2.2,0.9-4.1,2.3
		c-0.4,1.2-0.8,3-1.1,5.2c-0.3,1.6-0.3,4.6-0.2,9l3.5,3.4c-0.1,0.8-2,2-5.5,3.7l-2.2,11.9l-0.1,0.9c-0.2,1.2,0.6,2,2.4,2.4l-1.3,0.2
		c1.7-0.2,4-0.5,7-0.9c6.3-0.8,10.2-2.4,11.6-4.8c2.3,0.9,3.8,1.6,4.4,1.9c12-3.9,23.3-10.8,33.9-20.6c2.8-7.4,4.2-10.9,4.1-10.2
		c0.2-1.2-0.1-2.5-1-3.8c7.7-5.4,12.3-13.4,13.9-23.9c0.7-4.8,1.2-13.6,1.5-26.6l0,0C1428.1,169.6,1426.2,168.5,1424.1,168
		L1424.1,168z M1350.2,194.8l3.5-4.4l6.1-39c-0.7-2.5-2-4.2-3.9-5c1-0.5,2.2-1.3,3.7-2.3l1.7-2.6c1.1-7.2,2.8-18.4,5.2-33.5
		c2.4-15.7,4.3-27.7,5.6-35.9c-0.1-2.4-1-4.2-2.9-5.4l4.5-4.8l2.9-18.6c-1.3-2.1-3.3-2.9-6.1-2.6c-0.8,0.1-1.9,0.2-3.1,0.4
		c-0.6,0.1-1.4,0.2-2.2,0.3c-0.6,0.1-1.1,0.1-1.3,0.2c-2.3,0.3-5,1.9-8.2,5c-1.7-2.4-5.5-3.3-11.6-2.5c-4,0.5-6.5,1.8-7.7,4
		c-2,10.4-3.4,17.7-4,22.1c-0.3,1.7-0.6,4-1.1,7.1c-0.5,3.1-0.8,5.4-1.1,6.8c1.5,1.6,2.5,2.6,3.3,2.9c-3.2,4.9-5.1,8.7-5.5,11.6
		c-0.2,1.4-0.5,3.3-0.9,5.6c-0.4,2.5-0.6,4.1-0.8,5c-0.4,2.3-0.9,5.8-1.6,10.5c-0.7,4.8-1.3,8.4-1.7,10.8c-0.5,3.5-1.3,9.6-2.3,18.2
		l0.3,3.3c0.3,0.4,0.6,1,1,1.8c0.4,0.9,0.6,1.6,0.7,2.2c-2.6,1.9-4.2,4.3-4.8,7l-6.7,43.4c-0.3,1.7,0.6,4.2,2.5,7.6
		c-2.9,2.8-4.6,5.8-5.1,9.2l-0.2,1.2c-0.3,1.9-0.6,4.7-1,8.6c-0.6,4.1-1.1,7.2-1.5,9.3c-1,6.6-2.1,12.9-3.2,18.9
		c-0.4,2.5,0.6,4.1,3,4.8c1.5,0,3.5-0.1,6-0.5c6.1-0.8,9.8-2.7,10.9-5.9l0.2,0.6l1.6,3.8c1.9-0.2,4.1-0.5,6.7-0.8l3.5-0.4
		c5.3-0.7,8.3-2.9,8.8-6.6c0,0.2,0.1-0.7,0.4-2.8c0.1-2.2,0.4-4.6,0.8-7.1c0.5-3.5-0.4-5.6-2.7-6.3c0.3-0.9,1.3-2.1,2.7-3.7
		c1.5-1.6,3.1-8.3,5-20.1c0.3-1.7,0.7-4.5,1.3-8.7c0.4-4.1,0.9-7.5,1.3-10.2l0,0L1350.2,194.8z"/>
	<path class="st0" d="M1574.1,16c-2-0.1-3.6-0.1-4.7,0c-4,0.5-8.1,2.2-12.3,5.2l-1.6-1.6c-4.9-0.6-9.7-0.6-14.6,0
		c-2.7,0.3-4.9,0.7-6.4,1.1c-2.1,1.3-3.7,6.1-5,14.6c0.2,1.6,1.3,3.2,3.3,4.7l-2.8,2.2c-1.6,3.6-2.6,6.9-3.1,9.8
		c-0.2,1.4-0.3,3.4-0.2,5.8l2,2l16.6-2.1c1.9-1.2,3.5-2.7,5-4.3c0.9,2.3,2.8,3.3,5.8,2.9l8.9-1.1l1-0.1c2-1.1,3.7-2.3,4.9-3.6
		l0.4-2.8c0.2-1.4,0.5-3,0.7-4.6l0.3-2.2c0.5-3.3-0.5-5.4-3.1-6.2c2.9-1.6,4.9-5.3,5.8-11.3c0.4-2.9,0.7-5.1,0.7-6.7l0,0L1574.1,16z
		 M1553.8,137c0.7-4.6-0.4-8.4-3.2-11.3c3.6-2.1,5.9-6,6.8-11.7c1.1-6.9,1-10.3-0.3-10.2l-0.3,0c-1.3,0.2-2.9,0.4-5,0.6
		c-4.6,0.6-8.8,2.1-12.7,4.6l-3.3-2.6l-3.8,0.5c-1.7,0.2-3.5,0.4-5.3,0.7c-1.9,0.2-2.9,0.4-3.1,0.4c-3.6,0.4-5.7,3.4-6.6,8.7
		c-0.9,6-0.5,9.6,1.4,10.8c-2.5,2.5-3.9,5.5-4.5,8.8c0,0.2-0.2,1-0.4,2.5c-0.2,1.7-0.5,3.2-0.7,4.6l-0.4,2.8l0.7,1.4
		c2.5-0.1,5.8-0.4,10.1-1c7.4-0.9,12.3-2.5,14.7-4.9c2.2,1.8,3.9,2.5,5.2,2.4c6.5-0.8,10-2.3,10.3-4.4L1553.8,137z M1489.1,228.2
		c-1.8-1.8-2.9-2.9-3.2-3.2l0.7,0.5c1.8-2.3,3.1-3.8,3.7-4.7l3.7-23.8c2.3-15.1,5.5-35.4,9.5-61c0.2-2.9-0.6-5.3-2.6-7.3l4.6-5.4
		l11.7-75.5c0.1-0.8-0.7-1.7-2.4-2.7c1.4-2.6,2.7-4.5,3.7-5.6l2.1-13.6c-0.2-1.2-0.9-2.1-2-2.8c-2-0.2-3.5-0.2-4.3-0.1
		c-4.2,0.5-8.1,2.6-11.7,6.3c-1.6-2.8-5.3-3.9-11.2-3.2c-2.1,0.3-4.5,0.5-7.2,0.6c-1.3,0.4-2.4,1.3-3.2,2.8
		c-1,6.6-2.2,13.2-3.5,19.6c-1.3,6.5-1.9,9.6-1.9,9.4c-0.7,4.8,0.1,7.8,2.6,9.1c-3.4,4.5-5.3,8.5-5.9,12l-0.4,2.8
		c-0.6,3.9-1,7.8-1.2,11.7l-0.9,5.9c-0.2,1.5-0.7,3.6-1.3,6.6c-0.7,2.9-1.1,5.1-1.3,6.6c-1.1,7-0.1,12,3,14.8c-2.4,2.3-4.2,5-5.3,8
		l-9.3,55.6l-0.8,5.3c-0.7,4.6-0.3,8.4,1.3,11.4c-2.7,3-4.4,5.7-5,8.2l-4.8,31l1.7,1.3l16.7-2.1c1.9-0.5,3.7-1.9,5.3-4.3l2.7,2.7
		c1.6,0.2,3,0.2,4,0.1c1.5-0.2,3.7-0.9,6.8-2.1c2.6-2.4,4.2-5.3,4.8-8.8l0,0L1489.1,228.2z M1545.6,229.4c0.6-3.7,0.7-7.7,0.3-12.1
		c-1.2,0-1.9-0.4-2-1c0-0.2,0.7-0.8,2-1.8c1.3-1,2-2,2.3-3c0.3-1,0.6-2.5,0.8-4.3c0.5-2.9,0.4-6-0.1-9.3c-0.8,0.1-1.9,0.1-3.1,0.1
		c-1.3,0.2-2.1,0.3-2.5,0.3c-6.1,0.8-10.6,2.3-13.4,4.7c-2-1.8-4.7-2.5-8.1-2c-0.4,0.1-1.3,0.2-2.5,0.3c-1.5,0.2-2.7,0.3-3.8,0.5
		c-1.3,0.2-3.4,0.4-6.3,0.8c-4,1.7-6.5,5.8-7.5,12.2c-0.4,2.5-0.6,4.5-0.7,6.2c1.3,1.5,2.6,2.4,3.9,2.9c-2.7,2.2-4.6,4.4-5.7,6.8
		c-0.3,1.7-0.5,3.3-0.8,5l-0.4,2.5c-0.3,2.1,0.1,3.5,1.1,4.4l3.7-0.5c1.7-0.2,3.6-0.5,5.9-0.7c2.1-0.3,3.3-0.4,3.7-0.5
		c4-0.5,7.4-2.1,10.2-4.9c1.5,2.2,6.5,2.8,15,1.8c1.9-0.2,4-0.9,6.4-2l0,0C1544.8,234.1,1545.2,232,1545.6,229.4L1545.6,229.4z"/>
</g>
</svg>
