<?xml version="1.0" standalone="no"?>
<!DOCTYPE svg PUBLIC "-//W3C//DTD SVG 20010904//EN"
 "http://www.w3.org/TR/2001/REC-SVG-20010904/DTD/svg10.dtd">
<svg version="1.0" xmlns="http://www.w3.org/2000/svg"
 width="300.000000pt" height="300.000000pt" viewBox="0 0 300.000000 300.000000"
 preserveAspectRatio="xMidYMid meet">
<metadata>
Created by potrace 1.14, written by Peter Selinger 2001-2017
</metadata>
<g transform="translate(0.000000,300.000000) scale(0.100000,-0.100000)"
fill="#000000" stroke="none">
<path d="M1046 2935 c5 -11 2 -13 -11 -9 -9 4 -20 3 -24 -2 -3 -5 -25 -18 -48
-28 -23 -10 -40 -23 -37 -27 3 -5 2 -9 -3 -10 -32 -3 -49 -10 -60 -25 -7 -10
-13 -14 -13 -8 0 5 -7 0 -15 -10 -11 -14 -15 -16 -15 -5 -1 8 -6 5 -13 -9 -7
-12 -16 -20 -19 -17 -7 7 -47 -14 -63 -32 -5 -7 -17 -13 -25 -15 -8 -2 -21
-10 -28 -18 -8 -9 -11 -10 -7 -2 4 8 -10 3 -30 -10 -26 -16 -39 -32 -41 -51
-1 -16 2 -27 9 -27 8 0 8 -3 2 -8 -14 -10 -14 -65 -1 -74 7 -5 7 -8 1 -8 -14
0 -15 -70 -1 -70 7 0 7 -3 1 -8 -14 -10 -14 -65 -1 -74 7 -5 7 -8 1 -8 -5 0
-10 -20 -11 -45 0 -25 3 -42 9 -38 5 3 4 -4 -2 -15 -14 -27 -14 -35 1 -26 7 5
8 3 2 -7 -4 -8 -9 -30 -10 -49 -2 -55 -3 -62 -13 -56 -5 3 -12 -1 -15 -10 -4
-9 -9 -14 -12 -11 -4 3 -13 -1 -21 -9 -8 -8 -19 -12 -24 -9 -5 4 -9 2 -9 -4 0
-6 -11 -13 -25 -17 -14 -3 -25 -13 -25 -23 0 -14 -2 -14 -10 -1 -8 13 -10 13
-10 -2 0 -11 -5 -15 -15 -12 -8 4 -15 1 -15 -6 0 -7 -7 -10 -15 -6 -8 3 -14 0
-12 -6 1 -7 -4 -12 -11 -13 -7 0 -25 -11 -39 -25 -23 -22 -26 -22 -20 -5 6 14
0 11 -18 -10 -15 -16 -24 -23 -20 -15 4 8 -3 4 -14 -9 -12 -13 -21 -17 -21
-10 0 7 -12 1 -28 -14 -15 -15 -35 -27 -44 -27 -9 0 -17 -8 -20 -17 -2 -10 -3
-130 -3 -268 l1 -249 30 -18 c16 -10 37 -21 46 -24 10 -4 18 -10 18 -15 0 -5
5 -9 11 -9 6 0 23 -9 39 -20 15 -11 30 -17 34 -13 3 3 6 1 6 -5 0 -7 7 -12 15
-12 8 0 15 -3 15 -8 0 -4 15 -13 33 -21 17 -8 34 -17 37 -20 8 -9 82 -51 113
-64 15 -6 27 -15 27 -19 0 -4 6 -8 14 -8 17 0 24 -17 20 -52 -1 -17 2 -28 9
-28 8 0 8 -3 2 -8 -14 -10 -14 -65 -1 -74 7 -5 7 -8 1 -8 -14 0 -15 -70 -1
-70 7 0 7 -3 1 -8 -14 -10 -14 -65 -1 -74 7 -5 7 -8 1 -8 -14 0 -15 -70 -1
-70 7 0 7 -3 1 -8 -14 -10 -14 -65 -1 -74 7 -5 7 -8 1 -8 -14 0 -15 -70 -1
-70 7 0 7 -3 1 -8 -14 -10 -14 -65 -1 -74 7 -5 8 -8 0 -8 -11 0 -12 -79 0 -98
4 -7 3 -12 -3 -12 -20 0 -6 -42 21 -62 15 -10 28 -16 28 -12 0 4 7 -1 15 -12
8 -10 15 -15 15 -10 0 5 8 2 18 -6 9 -8 42 -28 72 -44 30 -16 59 -32 65 -37
37 -27 85 -55 85 -50 0 3 8 0 17 -8 10 -8 35 -24 55 -34 21 -11 38 -23 38 -27
0 -5 6 -8 13 -8 10 0 12 81 12 395 0 217 1 395 2 395 5 0 47 -24 53 -30 14
-14 70 -40 70 -33 0 4 5 0 11 -10 6 -9 14 -15 20 -12 5 4 9 1 9 -4 0 -6 6 -11
14 -11 7 0 19 -7 26 -15 7 -8 16 -13 20 -10 4 3 11 -2 14 -11 3 -8 10 -12 16
-9 5 3 10 2 10 -3 0 -4 16 -14 35 -22 19 -8 35 -18 35 -24 0 -5 3 -7 6 -3 4 3
13 -1 21 -9 8 -8 19 -12 24 -9 5 4 9 -1 9 -10 0 -9 4 -14 9 -10 5 3 16 -2 25
-10 8 -9 19 -14 23 -13 4 2 8 -8 8 -22 1 -14 4 -31 8 -38 5 -6 4 -12 0 -12 -5
0 -9 -20 -9 -44 1 -24 5 -42 10 -39 5 4 6 0 0 -8 -12 -20 -13 -99 -1 -99 6 0
8 -3 4 -6 -3 -3 15 -18 41 -32 53 -28 85 -47 202 -114 46 -27 87 -48 91 -48 5
0 9 -3 9 -8 0 -4 14 -13 30 -20 17 -8 37 -21 46 -29 8 -9 18 -13 21 -9 9 9 9
786 0 786 -4 0 -25 -11 -47 -25 -22 -14 -44 -25 -50 -25 -5 0 -10 -4 -10 -10
0 -5 -7 -10 -15 -10 -8 0 -15 -5 -15 -12 0 -6 -3 -9 -6 -5 -4 3 -26 -7 -50
-23 -23 -17 -47 -30 -53 -30 -6 0 -11 -4 -11 -8 0 -4 -12 -13 -27 -19 -37 -15
-87 -46 -91 -55 -2 -5 -9 -8 -17 -8 -7 0 -18 -6 -25 -14 -13 -17 -43 -9 -36 9
2 7 -1 18 -7 24 -6 6 -7 11 -2 11 6 0 8 33 5 80 -3 44 -3 80 0 80 3 0 3 49 0
110 -3 61 -3 110 0 110 4 0 4 16 2 35 -5 42 4 85 19 85 6 0 7 -5 3 -12 -4 -7
-3 -8 4 -4 7 4 12 14 12 21 0 9 6 12 17 8 10 -4 14 -2 10 4 -4 6 1 10 11 9 10
0 16 5 14 13 -2 11 0 12 10 4 14 -12 42 9 30 22 -4 4 0 6 8 3 8 -3 21 1 28 9
8 7 18 11 23 8 5 -4 9 -2 9 3 0 4 16 16 35 25 19 9 35 22 35 27 0 6 5 8 11 4
6 -3 15 0 20 7 4 8 12 14 16 15 19 2 49 19 60 33 6 9 16 17 22 17 6 1 16 2 21
3 6 0 18 9 28 19 15 15 17 41 16 269 -1 235 0 254 18 273 10 11 25 20 33 20 8
0 19 10 26 21 9 17 13 19 20 8 8 -13 13 -6 10 13 0 5 2 8 7 7 15 -2 52 14 52
22 0 5 6 8 13 6 6 -1 11 3 10 8 -1 6 8 12 20 12 11 1 24 9 29 17 5 9 15 13 25
9 11 -4 14 -3 9 5 -5 8 0 12 13 12 12 0 21 5 21 11 0 5 4 8 9 5 5 -3 12 1 15
10 3 9 13 14 20 11 8 -3 17 1 20 9 3 8 15 14 26 14 12 0 18 5 15 10 -6 9 8 14
28 11 4 0 7 4 7 10 0 6 -6 9 -14 6 -8 -3 -17 1 -20 9 -3 8 -15 14 -26 14 -11
0 -23 7 -26 15 -4 8 -10 12 -15 9 -5 -3 -9 -1 -9 4 0 5 -9 12 -21 15 -13 4
-18 10 -13 18 5 8 3 10 -5 4 -16 -9 -62 15 -54 28 3 6 1 7 -5 3 -6 -3 -18 1
-26 10 -9 8 -16 12 -16 8 0 -3 -7 -1 -15 6 -8 7 -15 9 -15 6 0 -4 -6 -1 -14 6
-8 7 -12 17 -9 21 3 5 -5 3 -18 -3 -13 -7 -21 -9 -17 -5 9 10 -9 26 -47 44
-53 24 -60 29 -57 41 2 8 -3 10 -13 7 -8 -4 -15 -1 -15 5 0 6 -3 8 -7 5 -3 -4
-12 1 -20 11 -10 11 -12 12 -8 2 4 -10 2 -9 -8 2 -8 10 -17 15 -21 11 -3 -4
-15 3 -26 15 -11 12 -32 25 -45 28 -14 3 -25 10 -25 15 0 5 -7 9 -15 9 -8 0
-15 5 -15 11 0 5 -4 8 -9 5 -5 -3 -14 1 -21 9 -7 8 -19 15 -26 15 -8 0 -14 5
-14 11 0 5 -4 7 -10 4 -5 -3 -10 -1 -10 5 0 6 -4 8 -10 5 -5 -3 -10 -1 -10 4
0 6 -9 11 -21 11 -11 0 -17 5 -14 10 3 6 -1 10 -9 10 -9 0 -16 5 -16 11 0 5
-5 7 -10 4 -6 -3 -13 1 -16 10 -5 11 -10 13 -19 5 -8 -7 -15 -3 -24 14 -9 17
-19 22 -35 19 -13 -3 -17 -2 -9 4 8 6 4 12 -13 20 -16 7 -22 7 -17 1 3 -7 1
-8 -5 -4 -7 4 -12 15 -13 24 0 11 -3 12 -6 5 -2 -7 -9 -13 -14 -13 -6 0 -7 5
-4 10 3 6 -1 10 -9 10 -9 0 -16 5 -16 10 0 6 -7 10 -15 10 -8 0 -15 5 -15 10
0 6 -5 10 -11 10 -5 0 -7 -5 -3 -11 4 -8 0 -8 -15 0 -11 7 -21 14 -21 17 0 3
5 2 12 -2 7 -4 8 -3 4 4 -4 7 -16 12 -27 12 -10 0 -19 5 -19 10 0 6 -7 10 -15
10 -7 0 -18 8 -24 18 -5 9 -13 16 -18 15 -15 -5 -43 8 -38 18 3 5 0 6 -8 3 -8
-3 -20 2 -27 11 -7 8 -17 15 -22 15 -5 0 -16 7 -25 15 -8 8 -19 13 -24 10 -5
-4 -9 -1 -9 4 0 6 -4 11 -10 11 -5 0 -7 -7 -4 -15z m931 -1031 c-3 -3 -12 -4
-19 -1 -8 3 -5 6 6 6 11 1 17 -2 13 -5z m-897 -26 c0 -5 5 -6 10 -3 6 3 10 2
10 -3 0 -6 11 -13 25 -16 14 -4 25 -11 25 -17 0 -6 5 -7 10 -4 6 3 10 1 10 -6
0 -7 3 -10 6 -7 3 4 41 -16 85 -43 44 -27 85 -49 90 -49 5 0 9 -5 9 -11 0 -5
4 -8 8 -5 5 3 18 -3 29 -14 12 -10 24 -16 27 -13 3 4 6 2 6 -4 0 -9 33 -25 50
-25 3 0 10 -6 17 -13 9 -10 8 -18 -6 -34 -10 -11 -21 -18 -25 -14 -3 3 -6 -2
-6 -13 0 -16 -2 -17 -10 -4 -6 10 -10 11 -10 3 0 -7 -7 -13 -15 -13 -8 0 -15
-4 -15 -9 0 -5 -11 -12 -25 -15 -14 -4 -25 -11 -25 -17 0 -6 -5 -7 -10 -4 -6
3 -13 0 -16 -9 -3 -8 -14 -13 -25 -11 -11 2 -17 0 -14 -6 4 -5 -1 -9 -9 -9 -9
0 -16 -3 -16 -7 0 -13 -52 -33 -64 -26 -6 4 -5 -1 2 -10 12 -14 11 -16 -7 -12
-12 2 -21 0 -21 -5 0 -4 -13 -13 -30 -19 -18 -6 -30 -17 -31 -28 0 -10 -3 -13
-6 -6 -3 9 -11 9 -29 -3 -13 -9 -25 -15 -25 -13 -1 2 -2 124 -3 270 -1 213 1
266 11 262 7 -3 13 -9 13 -15z"/>
<path d="M2445 2143 c-12 -4 -12 -84 -1 -102 4 -6 4 -11 -1 -11 -4 0 -8 -20
-8 -45 -1 -25 3 -45 8 -45 4 0 5 -6 1 -12 -12 -19 -12 -48 0 -48 7 0 7 -3 1
-8 -12 -9 -15 -92 -3 -92 5 0 6 -5 2 -12 -11 -18 -12 -68 -1 -68 5 0 4 -6 -2
-14 -9 -10 -8 -16 3 -25 18 -15 56 5 57 29 0 9 2 11 5 3 3 -7 12 -9 20 -6 7 3
12 9 9 13 -3 4 2 11 11 14 10 4 13 2 9 -7 -4 -6 3 -1 14 12 12 13 21 18 21 12
0 -7 12 1 26 16 15 15 20 19 13 8 -13 -19 -13 -19 7 -2 11 9 24 14 27 11 4 -4
9 1 13 10 3 9 12 16 19 16 7 0 15 5 17 10 2 6 13 12 25 12 11 1 19 7 16 14 -2
7 1 15 8 20 8 4 10 3 5 -4 -10 -17 9 -15 24 3 7 8 16 12 21 9 5 -3 9 0 9 6 0
6 4 9 9 6 12 -8 34 21 26 34 -3 6 -11 8 -16 4 -5 -3 -8 0 -7 8 2 7 -3 12 -9
10 -7 -1 -13 5 -13 13 0 8 -3 14 -7 14 -24 -4 -53 2 -49 10 8 12 -22 23 -37
14 -7 -3 -9 -3 -5 2 8 9 -53 55 -73 55 -6 0 -18 8 -26 18 -10 11 -12 12 -8 2
5 -12 4 -12 -7 1 -7 9 -21 15 -30 13 -10 -1 -21 3 -25 8 -3 7 -1 8 5 4 8 -4
10 -2 6 8 -3 8 -14 13 -24 11 -10 -2 -21 3 -24 12 -4 9 -13 13 -21 9 -10 -3
-19 1 -23 13 -4 10 -12 16 -17 14z"/>
</g>
</svg>
